<?xml version="1.0" encoding="utf-8" standalone="no"?>
<!DOCTYPE svg PUBLIC "-//W3C//DTD SVG 1.1//EN"
  "http://www.w3.org/Graphics/SVG/1.1/DTD/svg11.dtd">
<svg xmlns:xlink="http://www.w3.org/1999/xlink" width="443.278125pt" height="309.37625pt" viewBox="0 0 443.278125 309.37625" xmlns="http://www.w3.org/2000/svg" version="1.1">
 <metadata>
  <rdf:RDF xmlns:dc="http://purl.org/dc/elements/1.1/" xmlns:cc="http://creativecommons.org/ns#" xmlns:rdf="http://www.w3.org/1999/02/22-rdf-syntax-ns#">
   <cc:Work>
    <dc:type rdf:resource="http://purl.org/dc/dcmitype/StillImage"/>
    <dc:date>2026-08-26T13:28:08.200024</dc:date>
    <dc:format>image/svg+xml</dc:format>
    <dc:creator>
     <cc:Agent>
      <dc:title>Matplotlib v3.6.3, https://matplotlib.org/</dc:title>
     </cc:Agent>
    </dc:creator>
   </cc:Work>
  </rdf:RDF>
 </metadata>
 <defs>
  <style type="text/css">*{stroke-linejoin: round; stroke-linecap: butt}</style>
 </defs>
 <g id="figure_1">
  <g id="patch_1">
   <path d="M 0 309.37625 
L 443.278125 309.37625 
L 443.278125 0 
L 0 0 
z
" style="fill: #ffffff"/>
  </g>
  <g id="axes_1">
   <g id="patch_2">
    <path d="M 45.478125 271.798125 
L 436.078125 271.798125 
L 436.078125 22.318125 
L 45.478125 22.318125 
z
" style="fill: #ffffff"/>
   </g>
   <g id="matplotlib.axis_1">
    <g id="xtick_1">
     <g id="line2d_1">
      <path d="M 63.23267 271.798125 
L 63.23267 22.318125 
" clip-path="url(#p5b5a05a650)" style="fill: none; stroke: #b0b0b0; stroke-opacity: 0.3; stroke-width: 0.8; stroke-linecap: square"/>
     </g>
     <g id="line2d_2">
      <defs>
       <path id="mfcb8774ce1" d="M 0 0 
L 0 3.5 
" style="stroke: #000000; stroke-width: 0.8"/>
      </defs>
      <g>
       <use xlink:href="#mfcb8774ce1" x="63.23267" y="271.798125" style="stroke: #000000; stroke-width: 0.8"/>
      </g>
     </g>
     <g id="text_1">
      <!-- $\mathdefault{10^{-7}}$ -->
      <g transform="translate(51.48267 286.396562) scale(0.1 -0.1)">
       <defs>
        <path id="DejaVuSans-31" d="M 794 531 
L 1825 531 
L 1825 4091 
L 703 3866 
L 703 4441 
L 1819 4666 
L 2450 4666 
L 2450 531 
L 3481 531 
L 3481 0 
L 794 0 
L 794 531 
z
" transform="scale(0.015625)"/>
        <path id="DejaVuSans-30" d="M 2034 4250 
Q 1547 4250 1301 3770 
Q 1056 3291 1056 2328 
Q 1056 1369 1301 889 
Q 1547 409 2034 409 
Q 2525 409 2770 889 
Q 3016 1369 3016 2328 
Q 3016 3291 2770 3770 
Q 2525 4250 2034 4250 
z
M 2034 4750 
Q 2819 4750 3233 4129 
Q 3647 3509 3647 2328 
Q 3647 1150 3233 529 
Q 2819 -91 2034 -91 
Q 1250 -91 836 529 
Q 422 1150 422 2328 
Q 422 3509 836 4129 
Q 1250 4750 2034 4750 
z
" transform="scale(0.015625)"/>
        <path id="DejaVuSans-2212" d="M 678 2272 
L 4684 2272 
L 4684 1741 
L 678 1741 
L 678 2272 
z
" transform="scale(0.015625)"/>
        <path id="DejaVuSans-37" d="M 525 4666 
L 3525 4666 
L 3525 4397 
L 1831 0 
L 1172 0 
L 2766 4134 
L 525 4134 
L 525 4666 
z
" transform="scale(0.015625)"/>
       </defs>
       <use xlink:href="#DejaVuSans-31" transform="translate(0 0.684375)"/>
       <use xlink:href="#DejaVuSans-30" transform="translate(63.623047 0.684375)"/>
       <use xlink:href="#DejaVuSans-2212" transform="translate(128.203125 38.965625) scale(0.7)"/>
       <use xlink:href="#DejaVuSans-37" transform="translate(186.855469 38.965625) scale(0.7)"/>
      </g>
     </g>
    </g>
    <g id="xtick_2">
     <g id="line2d_3">
      <path d="M 134.250852 271.798125 
L 134.250852 22.318125 
" clip-path="url(#p5b5a05a650)" style="fill: none; stroke: #b0b0b0; stroke-opacity: 0.3; stroke-width: 0.8; stroke-linecap: square"/>
     </g>
     <g id="line2d_4">
      <g>
       <use xlink:href="#mfcb8774ce1" x="134.250852" y="271.798125" style="stroke: #000000; stroke-width: 0.8"/>
      </g>
     </g>
     <g id="text_2">
      <!-- $\mathdefault{10^{-6}}$ -->
      <g transform="translate(122.500852 286.396562) scale(0.1 -0.1)">
       <defs>
        <path id="DejaVuSans-36" d="M 2113 2584 
Q 1688 2584 1439 2293 
Q 1191 2003 1191 1497 
Q 1191 994 1439 701 
Q 1688 409 2113 409 
Q 2538 409 2786 701 
Q 3034 994 3034 1497 
Q 3034 2003 2786 2293 
Q 2538 2584 2113 2584 
z
M 3366 4563 
L 3366 3988 
Q 3128 4100 2886 4159 
Q 2644 4219 2406 4219 
Q 1781 4219 1451 3797 
Q 1122 3375 1075 2522 
Q 1259 2794 1537 2939 
Q 1816 3084 2150 3084 
Q 2853 3084 3261 2657 
Q 3669 2231 3669 1497 
Q 3669 778 3244 343 
Q 2819 -91 2113 -91 
Q 1303 -91 875 529 
Q 447 1150 447 2328 
Q 447 3434 972 4092 
Q 1497 4750 2381 4750 
Q 2619 4750 2861 4703 
Q 3103 4656 3366 4563 
z
" transform="scale(0.015625)"/>
       </defs>
       <use xlink:href="#DejaVuSans-31" transform="translate(0 0.765625)"/>
       <use xlink:href="#DejaVuSans-30" transform="translate(63.623047 0.765625)"/>
       <use xlink:href="#DejaVuSans-2212" transform="translate(128.203125 39.046875) scale(0.7)"/>
       <use xlink:href="#DejaVuSans-36" transform="translate(186.855469 39.046875) scale(0.7)"/>
      </g>
     </g>
    </g>
    <g id="xtick_3">
     <g id="line2d_5">
      <path d="M 205.269034 271.798125 
L 205.269034 22.318125 
" clip-path="url(#p5b5a05a650)" style="fill: none; stroke: #b0b0b0; stroke-opacity: 0.3; stroke-width: 0.8; stroke-linecap: square"/>
     </g>
     <g id="line2d_6">
      <g>
       <use xlink:href="#mfcb8774ce1" x="205.269034" y="271.798125" style="stroke: #000000; stroke-width: 0.8"/>
      </g>
     </g>
     <g id="text_3">
      <!-- $\mathdefault{10^{-5}}$ -->
      <g transform="translate(193.519034 286.396562) scale(0.1 -0.1)">
       <defs>
        <path id="DejaVuSans-35" d="M 691 4666 
L 3169 4666 
L 3169 4134 
L 1269 4134 
L 1269 2991 
Q 1406 3038 1543 3061 
Q 1681 3084 1819 3084 
Q 2600 3084 3056 2656 
Q 3513 2228 3513 1497 
Q 3513 744 3044 326 
Q 2575 -91 1722 -91 
Q 1428 -91 1123 -41 
Q 819 9 494 109 
L 494 744 
Q 775 591 1075 516 
Q 1375 441 1709 441 
Q 2250 441 2565 725 
Q 2881 1009 2881 1497 
Q 2881 1984 2565 2268 
Q 2250 2553 1709 2553 
Q 1456 2553 1204 2497 
Q 953 2441 691 2322 
L 691 4666 
z
" transform="scale(0.015625)"/>
       </defs>
       <use xlink:href="#DejaVuSans-31" transform="translate(0 0.684375)"/>
       <use xlink:href="#DejaVuSans-30" transform="translate(63.623047 0.684375)"/>
       <use xlink:href="#DejaVuSans-2212" transform="translate(128.203125 38.965625) scale(0.7)"/>
       <use xlink:href="#DejaVuSans-35" transform="translate(186.855469 38.965625) scale(0.7)"/>
      </g>
     </g>
    </g>
    <g id="xtick_4">
     <g id="line2d_7">
      <path d="M 276.287216 271.798125 
L 276.287216 22.318125 
" clip-path="url(#p5b5a05a650)" style="fill: none; stroke: #b0b0b0; stroke-opacity: 0.3; stroke-width: 0.8; stroke-linecap: square"/>
     </g>
     <g id="line2d_8">
      <g>
       <use xlink:href="#mfcb8774ce1" x="276.287216" y="271.798125" style="stroke: #000000; stroke-width: 0.8"/>
      </g>
     </g>
     <g id="text_4">
      <!-- $\mathdefault{10^{-4}}$ -->
      <g transform="translate(264.537216 286.396562) scale(0.1 -0.1)">
       <defs>
        <path id="DejaVuSans-34" d="M 2419 4116 
L 825 1625 
L 2419 1625 
L 2419 4116 
z
M 2253 4666 
L 3047 4666 
L 3047 1625 
L 3713 1625 
L 3713 1100 
L 3047 1100 
L 3047 0 
L 2419 0 
L 2419 1100 
L 313 1100 
L 313 1709 
L 2253 4666 
z
" transform="scale(0.015625)"/>
       </defs>
       <use xlink:href="#DejaVuSans-31" transform="translate(0 0.684375)"/>
       <use xlink:href="#DejaVuSans-30" transform="translate(63.623047 0.684375)"/>
       <use xlink:href="#DejaVuSans-2212" transform="translate(128.203125 38.965625) scale(0.7)"/>
       <use xlink:href="#DejaVuSans-34" transform="translate(186.855469 38.965625) scale(0.7)"/>
      </g>
     </g>
    </g>
    <g id="xtick_5">
     <g id="line2d_9">
      <path d="M 347.305398 271.798125 
L 347.305398 22.318125 
" clip-path="url(#p5b5a05a650)" style="fill: none; stroke: #b0b0b0; stroke-opacity: 0.3; stroke-width: 0.8; stroke-linecap: square"/>
     </g>
     <g id="line2d_10">
      <g>
       <use xlink:href="#mfcb8774ce1" x="347.305398" y="271.798125" style="stroke: #000000; stroke-width: 0.8"/>
      </g>
     </g>
     <g id="text_5">
      <!-- $\mathdefault{10^{-3}}$ -->
      <g transform="translate(335.555398 286.396562) scale(0.1 -0.1)">
       <defs>
        <path id="DejaVuSans-33" d="M 2597 2516 
Q 3050 2419 3304 2112 
Q 3559 1806 3559 1356 
Q 3559 666 3084 287 
Q 2609 -91 1734 -91 
Q 1441 -91 1130 -33 
Q 819 25 488 141 
L 488 750 
Q 750 597 1062 519 
Q 1375 441 1716 441 
Q 2309 441 2620 675 
Q 2931 909 2931 1356 
Q 2931 1769 2642 2001 
Q 2353 2234 1838 2234 
L 1294 2234 
L 1294 2753 
L 1863 2753 
Q 2328 2753 2575 2939 
Q 2822 3125 2822 3475 
Q 2822 3834 2567 4026 
Q 2313 4219 1838 4219 
Q 1578 4219 1281 4162 
Q 984 4106 628 3988 
L 628 4550 
Q 988 4650 1302 4700 
Q 1616 4750 1894 4750 
Q 2613 4750 3031 4423 
Q 3450 4097 3450 3541 
Q 3450 3153 3228 2886 
Q 3006 2619 2597 2516 
z
" transform="scale(0.015625)"/>
       </defs>
       <use xlink:href="#DejaVuSans-31" transform="translate(0 0.765625)"/>
       <use xlink:href="#DejaVuSans-30" transform="translate(63.623047 0.765625)"/>
       <use xlink:href="#DejaVuSans-2212" transform="translate(128.203125 39.046875) scale(0.7)"/>
       <use xlink:href="#DejaVuSans-33" transform="translate(186.855469 39.046875) scale(0.7)"/>
      </g>
     </g>
    </g>
    <g id="xtick_6">
     <g id="line2d_11">
      <path d="M 418.32358 271.798125 
L 418.32358 22.318125 
" clip-path="url(#p5b5a05a650)" style="fill: none; stroke: #b0b0b0; stroke-opacity: 0.3; stroke-width: 0.8; stroke-linecap: square"/>
     </g>
     <g id="line2d_12">
      <g>
       <use xlink:href="#mfcb8774ce1" x="418.32358" y="271.798125" style="stroke: #000000; stroke-width: 0.8"/>
      </g>
     </g>
     <g id="text_6">
      <!-- $\mathdefault{10^{-2}}$ -->
      <g transform="translate(406.57358 286.396562) scale(0.1 -0.1)">
       <defs>
        <path id="DejaVuSans-32" d="M 1228 531 
L 3431 531 
L 3431 0 
L 469 0 
L 469 531 
Q 828 903 1448 1529 
Q 2069 2156 2228 2338 
Q 2531 2678 2651 2914 
Q 2772 3150 2772 3378 
Q 2772 3750 2511 3984 
Q 2250 4219 1831 4219 
Q 1534 4219 1204 4116 
Q 875 4013 500 3803 
L 500 4441 
Q 881 4594 1212 4672 
Q 1544 4750 1819 4750 
Q 2544 4750 2975 4387 
Q 3406 4025 3406 3419 
Q 3406 3131 3298 2873 
Q 3191 2616 2906 2266 
Q 2828 2175 2409 1742 
Q 1991 1309 1228 531 
z
" transform="scale(0.015625)"/>
       </defs>
       <use xlink:href="#DejaVuSans-31" transform="translate(0 0.765625)"/>
       <use xlink:href="#DejaVuSans-30" transform="translate(63.623047 0.765625)"/>
       <use xlink:href="#DejaVuSans-2212" transform="translate(128.203125 39.046875) scale(0.7)"/>
       <use xlink:href="#DejaVuSans-32" transform="translate(186.855469 39.046875) scale(0.7)"/>
      </g>
     </g>
    </g>
    <g id="xtick_7">
     <g id="line2d_13">
      <defs>
       <path id="m293221ba26" d="M 0 0 
L 0 2 
" style="stroke: #000000; stroke-width: 0.6"/>
      </defs>
      <g>
       <use xlink:href="#m293221ba26" x="47.477376" y="271.798125" style="stroke: #000000; stroke-width: 0.6"/>
      </g>
     </g>
    </g>
    <g id="xtick_8">
     <g id="line2d_14">
      <g>
       <use xlink:href="#m293221ba26" x="52.231815" y="271.798125" style="stroke: #000000; stroke-width: 0.6"/>
      </g>
     </g>
    </g>
    <g id="xtick_9">
     <g id="line2d_15">
      <g>
       <use xlink:href="#m293221ba26" x="56.350298" y="271.798125" style="stroke: #000000; stroke-width: 0.6"/>
      </g>
     </g>
    </g>
    <g id="xtick_10">
     <g id="line2d_16">
      <g>
       <use xlink:href="#m293221ba26" x="59.983057" y="271.798125" style="stroke: #000000; stroke-width: 0.6"/>
      </g>
     </g>
    </g>
    <g id="xtick_11">
     <g id="line2d_17">
      <g>
       <use xlink:href="#m293221ba26" x="84.611273" y="271.798125" style="stroke: #000000; stroke-width: 0.6"/>
      </g>
     </g>
    </g>
    <g id="xtick_12">
     <g id="line2d_18">
      <g>
       <use xlink:href="#m293221ba26" x="97.116954" y="271.798125" style="stroke: #000000; stroke-width: 0.6"/>
      </g>
     </g>
    </g>
    <g id="xtick_13">
     <g id="line2d_19">
      <g>
       <use xlink:href="#m293221ba26" x="105.989876" y="271.798125" style="stroke: #000000; stroke-width: 0.6"/>
      </g>
     </g>
    </g>
    <g id="xtick_14">
     <g id="line2d_20">
      <g>
       <use xlink:href="#m293221ba26" x="112.872249" y="271.798125" style="stroke: #000000; stroke-width: 0.6"/>
      </g>
     </g>
    </g>
    <g id="xtick_15">
     <g id="line2d_21">
      <g>
       <use xlink:href="#m293221ba26" x="118.495557" y="271.798125" style="stroke: #000000; stroke-width: 0.6"/>
      </g>
     </g>
    </g>
    <g id="xtick_16">
     <g id="line2d_22">
      <g>
       <use xlink:href="#m293221ba26" x="123.249997" y="271.798125" style="stroke: #000000; stroke-width: 0.6"/>
      </g>
     </g>
    </g>
    <g id="xtick_17">
     <g id="line2d_23">
      <g>
       <use xlink:href="#m293221ba26" x="127.368479" y="271.798125" style="stroke: #000000; stroke-width: 0.6"/>
      </g>
     </g>
    </g>
    <g id="xtick_18">
     <g id="line2d_24">
      <g>
       <use xlink:href="#m293221ba26" x="131.001238" y="271.798125" style="stroke: #000000; stroke-width: 0.6"/>
      </g>
     </g>
    </g>
    <g id="xtick_19">
     <g id="line2d_25">
      <g>
       <use xlink:href="#m293221ba26" x="155.629455" y="271.798125" style="stroke: #000000; stroke-width: 0.6"/>
      </g>
     </g>
    </g>
    <g id="xtick_20">
     <g id="line2d_26">
      <g>
       <use xlink:href="#m293221ba26" x="168.135136" y="271.798125" style="stroke: #000000; stroke-width: 0.6"/>
      </g>
     </g>
    </g>
    <g id="xtick_21">
     <g id="line2d_27">
      <g>
       <use xlink:href="#m293221ba26" x="177.008058" y="271.798125" style="stroke: #000000; stroke-width: 0.6"/>
      </g>
     </g>
    </g>
    <g id="xtick_22">
     <g id="line2d_28">
      <g>
       <use xlink:href="#m293221ba26" x="183.890431" y="271.798125" style="stroke: #000000; stroke-width: 0.6"/>
      </g>
     </g>
    </g>
    <g id="xtick_23">
     <g id="line2d_29">
      <g>
       <use xlink:href="#m293221ba26" x="189.513739" y="271.798125" style="stroke: #000000; stroke-width: 0.6"/>
      </g>
     </g>
    </g>
    <g id="xtick_24">
     <g id="line2d_30">
      <g>
       <use xlink:href="#m293221ba26" x="194.268179" y="271.798125" style="stroke: #000000; stroke-width: 0.6"/>
      </g>
     </g>
    </g>
    <g id="xtick_25">
     <g id="line2d_31">
      <g>
       <use xlink:href="#m293221ba26" x="198.386661" y="271.798125" style="stroke: #000000; stroke-width: 0.6"/>
      </g>
     </g>
    </g>
    <g id="xtick_26">
     <g id="line2d_32">
      <g>
       <use xlink:href="#m293221ba26" x="202.01942" y="271.798125" style="stroke: #000000; stroke-width: 0.6"/>
      </g>
     </g>
    </g>
    <g id="xtick_27">
     <g id="line2d_33">
      <g>
       <use xlink:href="#m293221ba26" x="226.647637" y="271.798125" style="stroke: #000000; stroke-width: 0.6"/>
      </g>
     </g>
    </g>
    <g id="xtick_28">
     <g id="line2d_34">
      <g>
       <use xlink:href="#m293221ba26" x="239.153318" y="271.798125" style="stroke: #000000; stroke-width: 0.6"/>
      </g>
     </g>
    </g>
    <g id="xtick_29">
     <g id="line2d_35">
      <g>
       <use xlink:href="#m293221ba26" x="248.02624" y="271.798125" style="stroke: #000000; stroke-width: 0.6"/>
      </g>
     </g>
    </g>
    <g id="xtick_30">
     <g id="line2d_36">
      <g>
       <use xlink:href="#m293221ba26" x="254.908613" y="271.798125" style="stroke: #000000; stroke-width: 0.6"/>
      </g>
     </g>
    </g>
    <g id="xtick_31">
     <g id="line2d_37">
      <g>
       <use xlink:href="#m293221ba26" x="260.531921" y="271.798125" style="stroke: #000000; stroke-width: 0.6"/>
      </g>
     </g>
    </g>
    <g id="xtick_32">
     <g id="line2d_38">
      <g>
       <use xlink:href="#m293221ba26" x="265.28636" y="271.798125" style="stroke: #000000; stroke-width: 0.6"/>
      </g>
     </g>
    </g>
    <g id="xtick_33">
     <g id="line2d_39">
      <g>
       <use xlink:href="#m293221ba26" x="269.404843" y="271.798125" style="stroke: #000000; stroke-width: 0.6"/>
      </g>
     </g>
    </g>
    <g id="xtick_34">
     <g id="line2d_40">
      <g>
       <use xlink:href="#m293221ba26" x="273.037602" y="271.798125" style="stroke: #000000; stroke-width: 0.6"/>
      </g>
     </g>
    </g>
    <g id="xtick_35">
     <g id="line2d_41">
      <g>
       <use xlink:href="#m293221ba26" x="297.665819" y="271.798125" style="stroke: #000000; stroke-width: 0.6"/>
      </g>
     </g>
    </g>
    <g id="xtick_36">
     <g id="line2d_42">
      <g>
       <use xlink:href="#m293221ba26" x="310.1715" y="271.798125" style="stroke: #000000; stroke-width: 0.6"/>
      </g>
     </g>
    </g>
    <g id="xtick_37">
     <g id="line2d_43">
      <g>
       <use xlink:href="#m293221ba26" x="319.044422" y="271.798125" style="stroke: #000000; stroke-width: 0.6"/>
      </g>
     </g>
    </g>
    <g id="xtick_38">
     <g id="line2d_44">
      <g>
       <use xlink:href="#m293221ba26" x="325.926795" y="271.798125" style="stroke: #000000; stroke-width: 0.6"/>
      </g>
     </g>
    </g>
    <g id="xtick_39">
     <g id="line2d_45">
      <g>
       <use xlink:href="#m293221ba26" x="331.550103" y="271.798125" style="stroke: #000000; stroke-width: 0.6"/>
      </g>
     </g>
    </g>
    <g id="xtick_40">
     <g id="line2d_46">
      <g>
       <use xlink:href="#m293221ba26" x="336.304542" y="271.798125" style="stroke: #000000; stroke-width: 0.6"/>
      </g>
     </g>
    </g>
    <g id="xtick_41">
     <g id="line2d_47">
      <g>
       <use xlink:href="#m293221ba26" x="340.423025" y="271.798125" style="stroke: #000000; stroke-width: 0.6"/>
      </g>
     </g>
    </g>
    <g id="xtick_42">
     <g id="line2d_48">
      <g>
       <use xlink:href="#m293221ba26" x="344.055784" y="271.798125" style="stroke: #000000; stroke-width: 0.6"/>
      </g>
     </g>
    </g>
    <g id="xtick_43">
     <g id="line2d_49">
      <g>
       <use xlink:href="#m293221ba26" x="368.684001" y="271.798125" style="stroke: #000000; stroke-width: 0.6"/>
      </g>
     </g>
    </g>
    <g id="xtick_44">
     <g id="line2d_50">
      <g>
       <use xlink:href="#m293221ba26" x="381.189682" y="271.798125" style="stroke: #000000; stroke-width: 0.6"/>
      </g>
     </g>
    </g>
    <g id="xtick_45">
     <g id="line2d_51">
      <g>
       <use xlink:href="#m293221ba26" x="390.062604" y="271.798125" style="stroke: #000000; stroke-width: 0.6"/>
      </g>
     </g>
    </g>
    <g id="xtick_46">
     <g id="line2d_52">
      <g>
       <use xlink:href="#m293221ba26" x="396.944977" y="271.798125" style="stroke: #000000; stroke-width: 0.6"/>
      </g>
     </g>
    </g>
    <g id="xtick_47">
     <g id="line2d_53">
      <g>
       <use xlink:href="#m293221ba26" x="402.568285" y="271.798125" style="stroke: #000000; stroke-width: 0.6"/>
      </g>
     </g>
    </g>
    <g id="xtick_48">
     <g id="line2d_54">
      <g>
       <use xlink:href="#m293221ba26" x="407.322724" y="271.798125" style="stroke: #000000; stroke-width: 0.6"/>
      </g>
     </g>
    </g>
    <g id="xtick_49">
     <g id="line2d_55">
      <g>
       <use xlink:href="#m293221ba26" x="411.441207" y="271.798125" style="stroke: #000000; stroke-width: 0.6"/>
      </g>
     </g>
    </g>
    <g id="xtick_50">
     <g id="line2d_56">
      <g>
       <use xlink:href="#m293221ba26" x="415.073966" y="271.798125" style="stroke: #000000; stroke-width: 0.6"/>
      </g>
     </g>
    </g>
    <g id="text_7">
     <!-- $\tau_{emit}$ (log scale) -->
     <g transform="translate(202.128125 300.07625) scale(0.1 -0.1)">
      <defs>
       <path id="DejaVuSans-Oblique-3c4" d="M 2103 638 
Q 2188 488 2525 488 
L 2800 488 
L 2706 0 
L 2363 0 
Q 1800 0 1600 300 
Q 1403 606 1534 1269 
L 1856 2925 
L 541 2925 
L 653 3500 
L 3881 3500 
L 3769 2925 
L 2444 2925 
L 2113 1234 
Q 2025 781 2103 638 
z
" transform="scale(0.015625)"/>
       <path id="DejaVuSans-Oblique-65" d="M 3078 2063 
Q 3088 2113 3092 2166 
Q 3097 2219 3097 2272 
Q 3097 2653 2873 2875 
Q 2650 3097 2266 3097 
Q 1838 3097 1509 2826 
Q 1181 2556 1013 2059 
L 3078 2063 
z
M 3578 1613 
L 903 1613 
Q 884 1494 878 1425 
Q 872 1356 872 1306 
Q 872 872 1139 634 
Q 1406 397 1894 397 
Q 2269 397 2603 481 
Q 2938 566 3225 728 
L 3116 159 
Q 2806 34 2476 -28 
Q 2147 -91 1806 -91 
Q 1078 -91 686 257 
Q 294 606 294 1247 
Q 294 1794 489 2264 
Q 684 2734 1063 3103 
Q 1306 3334 1642 3459 
Q 1978 3584 2356 3584 
Q 2950 3584 3301 3228 
Q 3653 2872 3653 2272 
Q 3653 2128 3634 1964 
Q 3616 1800 3578 1613 
z
" transform="scale(0.015625)"/>
       <path id="DejaVuSans-Oblique-6d" d="M 5747 2113 
L 5338 0 
L 4763 0 
L 5166 2094 
Q 5191 2228 5203 2325 
Q 5216 2422 5216 2491 
Q 5216 2772 5059 2928 
Q 4903 3084 4622 3084 
Q 4203 3084 3875 2770 
Q 3547 2456 3450 1953 
L 3066 0 
L 2491 0 
L 2900 2094 
Q 2925 2209 2937 2307 
Q 2950 2406 2950 2484 
Q 2950 2769 2794 2926 
Q 2638 3084 2363 3084 
Q 1938 3084 1609 2770 
Q 1281 2456 1184 1953 
L 800 0 
L 225 0 
L 909 3500 
L 1484 3500 
L 1375 2956 
Q 1609 3263 1923 3423 
Q 2238 3584 2597 3584 
Q 2978 3584 3223 3384 
Q 3469 3184 3519 2828 
Q 3781 3197 4126 3390 
Q 4472 3584 4856 3584 
Q 5306 3584 5551 3325 
Q 5797 3066 5797 2591 
Q 5797 2488 5784 2364 
Q 5772 2241 5747 2113 
z
" transform="scale(0.015625)"/>
       <path id="DejaVuSans-Oblique-69" d="M 1172 4863 
L 1747 4863 
L 1606 4134 
L 1031 4134 
L 1172 4863 
z
M 909 3500 
L 1484 3500 
L 800 0 
L 225 0 
L 909 3500 
z
" transform="scale(0.015625)"/>
       <path id="DejaVuSans-Oblique-74" d="M 2706 3500 
L 2619 3053 
L 1472 3053 
L 1100 1153 
Q 1081 1047 1072 975 
Q 1063 903 1063 863 
Q 1063 663 1183 572 
Q 1303 481 1569 481 
L 2150 481 
L 2053 0 
L 1503 0 
Q 991 0 739 200 
Q 488 400 488 806 
Q 488 878 497 964 
Q 506 1050 525 1153 
L 897 3053 
L 409 3053 
L 500 3500 
L 978 3500 
L 1172 4494 
L 1747 4494 
L 1556 3500 
L 2706 3500 
z
" transform="scale(0.015625)"/>
       <path id="DejaVuSans-20" transform="scale(0.015625)"/>
       <path id="DejaVuSans-28" d="M 1984 4856 
Q 1566 4138 1362 3434 
Q 1159 2731 1159 2009 
Q 1159 1288 1364 580 
Q 1569 -128 1984 -844 
L 1484 -844 
Q 1016 -109 783 600 
Q 550 1309 550 2009 
Q 550 2706 781 3412 
Q 1013 4119 1484 4856 
L 1984 4856 
z
" transform="scale(0.015625)"/>
       <path id="DejaVuSans-6c" d="M 603 4863 
L 1178 4863 
L 1178 0 
L 603 0 
L 603 4863 
z
" transform="scale(0.015625)"/>
       <path id="DejaVuSans-6f" d="M 1959 3097 
Q 1497 3097 1228 2736 
Q 959 2375 959 1747 
Q 959 1119 1226 758 
Q 1494 397 1959 397 
Q 2419 397 2687 759 
Q 2956 1122 2956 1747 
Q 2956 2369 2687 2733 
Q 2419 3097 1959 3097 
z
M 1959 3584 
Q 2709 3584 3137 3096 
Q 3566 2609 3566 1747 
Q 3566 888 3137 398 
Q 2709 -91 1959 -91 
Q 1206 -91 779 398 
Q 353 888 353 1747 
Q 353 2609 779 3096 
Q 1206 3584 1959 3584 
z
" transform="scale(0.015625)"/>
       <path id="DejaVuSans-67" d="M 2906 1791 
Q 2906 2416 2648 2759 
Q 2391 3103 1925 3103 
Q 1463 3103 1205 2759 
Q 947 2416 947 1791 
Q 947 1169 1205 825 
Q 1463 481 1925 481 
Q 2391 481 2648 825 
Q 2906 1169 2906 1791 
z
M 3481 434 
Q 3481 -459 3084 -895 
Q 2688 -1331 1869 -1331 
Q 1566 -1331 1297 -1286 
Q 1028 -1241 775 -1147 
L 775 -588 
Q 1028 -725 1275 -790 
Q 1522 -856 1778 -856 
Q 2344 -856 2625 -561 
Q 2906 -266 2906 331 
L 2906 616 
Q 2728 306 2450 153 
Q 2172 0 1784 0 
Q 1141 0 747 490 
Q 353 981 353 1791 
Q 353 2603 747 3093 
Q 1141 3584 1784 3584 
Q 2172 3584 2450 3431 
Q 2728 3278 2906 2969 
L 2906 3500 
L 3481 3500 
L 3481 434 
z
" transform="scale(0.015625)"/>
       <path id="DejaVuSans-73" d="M 2834 3397 
L 2834 2853 
Q 2591 2978 2328 3040 
Q 2066 3103 1784 3103 
Q 1356 3103 1142 2972 
Q 928 2841 928 2578 
Q 928 2378 1081 2264 
Q 1234 2150 1697 2047 
L 1894 2003 
Q 2506 1872 2764 1633 
Q 3022 1394 3022 966 
Q 3022 478 2636 193 
Q 2250 -91 1575 -91 
Q 1294 -91 989 -36 
Q 684 19 347 128 
L 347 722 
Q 666 556 975 473 
Q 1284 391 1588 391 
Q 1994 391 2212 530 
Q 2431 669 2431 922 
Q 2431 1156 2273 1281 
Q 2116 1406 1581 1522 
L 1381 1569 
Q 847 1681 609 1914 
Q 372 2147 372 2553 
Q 372 3047 722 3315 
Q 1072 3584 1716 3584 
Q 2034 3584 2315 3537 
Q 2597 3491 2834 3397 
z
" transform="scale(0.015625)"/>
       <path id="DejaVuSans-63" d="M 3122 3366 
L 3122 2828 
Q 2878 2963 2633 3030 
Q 2388 3097 2138 3097 
Q 1578 3097 1268 2742 
Q 959 2388 959 1747 
Q 959 1106 1268 751 
Q 1578 397 2138 397 
Q 2388 397 2633 464 
Q 2878 531 3122 666 
L 3122 134 
Q 2881 22 2623 -34 
Q 2366 -91 2075 -91 
Q 1284 -91 818 406 
Q 353 903 353 1747 
Q 353 2603 823 3093 
Q 1294 3584 2113 3584 
Q 2378 3584 2631 3529 
Q 2884 3475 3122 3366 
z
" transform="scale(0.015625)"/>
       <path id="DejaVuSans-61" d="M 2194 1759 
Q 1497 1759 1228 1600 
Q 959 1441 959 1056 
Q 959 750 1161 570 
Q 1363 391 1709 391 
Q 2188 391 2477 730 
Q 2766 1069 2766 1631 
L 2766 1759 
L 2194 1759 
z
M 3341 1997 
L 3341 0 
L 2766 0 
L 2766 531 
Q 2569 213 2275 61 
Q 1981 -91 1556 -91 
Q 1019 -91 701 211 
Q 384 513 384 1019 
Q 384 1609 779 1909 
Q 1175 2209 1959 2209 
L 2766 2209 
L 2766 2266 
Q 2766 2663 2505 2880 
Q 2244 3097 1772 3097 
Q 1472 3097 1187 3025 
Q 903 2953 641 2809 
L 641 3341 
Q 956 3463 1253 3523 
Q 1550 3584 1831 3584 
Q 2591 3584 2966 3190 
Q 3341 2797 3341 1997 
z
" transform="scale(0.015625)"/>
       <path id="DejaVuSans-65" d="M 3597 1894 
L 3597 1613 
L 953 1613 
Q 991 1019 1311 708 
Q 1631 397 2203 397 
Q 2534 397 2845 478 
Q 3156 559 3463 722 
L 3463 178 
Q 3153 47 2828 -22 
Q 2503 -91 2169 -91 
Q 1331 -91 842 396 
Q 353 884 353 1716 
Q 353 2575 817 3079 
Q 1281 3584 2069 3584 
Q 2775 3584 3186 3129 
Q 3597 2675 3597 1894 
z
M 3022 2063 
Q 3016 2534 2758 2815 
Q 2500 3097 2075 3097 
Q 1594 3097 1305 2825 
Q 1016 2553 972 2059 
L 3022 2063 
z
" transform="scale(0.015625)"/>
       <path id="DejaVuSans-29" d="M 513 4856 
L 1013 4856 
Q 1481 4119 1714 3412 
Q 1947 2706 1947 2009 
Q 1947 1309 1714 600 
Q 1481 -109 1013 -844 
L 513 -844 
Q 928 -128 1133 580 
Q 1338 1288 1338 2009 
Q 1338 2731 1133 3434 
Q 928 4138 513 4856 
z
" transform="scale(0.015625)"/>
      </defs>
      <use xlink:href="#DejaVuSans-Oblique-3c4" transform="translate(0 0.015625)"/>
      <use xlink:href="#DejaVuSans-Oblique-65" transform="translate(60.205078 -16.390625) scale(0.7)"/>
      <use xlink:href="#DejaVuSans-Oblique-6d" transform="translate(103.271484 -16.390625) scale(0.7)"/>
      <use xlink:href="#DejaVuSans-Oblique-69" transform="translate(171.459961 -16.390625) scale(0.7)"/>
      <use xlink:href="#DejaVuSans-Oblique-74" transform="translate(190.908203 -16.390625) scale(0.7)"/>
      <use xlink:href="#DejaVuSans-20" transform="translate(221.088867 0.015625)"/>
      <use xlink:href="#DejaVuSans-28" transform="translate(252.875977 0.015625)"/>
      <use xlink:href="#DejaVuSans-6c" transform="translate(291.889648 0.015625)"/>
      <use xlink:href="#DejaVuSans-6f" transform="translate(319.672852 0.015625)"/>
      <use xlink:href="#DejaVuSans-67" transform="translate(380.854492 0.015625)"/>
      <use xlink:href="#DejaVuSans-20" transform="translate(444.331055 0.015625)"/>
      <use xlink:href="#DejaVuSans-73" transform="translate(476.118164 0.015625)"/>
      <use xlink:href="#DejaVuSans-63" transform="translate(528.217773 0.015625)"/>
      <use xlink:href="#DejaVuSans-61" transform="translate(583.198242 0.015625)"/>
      <use xlink:href="#DejaVuSans-6c" transform="translate(644.477539 0.015625)"/>
      <use xlink:href="#DejaVuSans-65" transform="translate(672.260742 0.015625)"/>
      <use xlink:href="#DejaVuSans-29" transform="translate(733.78418 0.015625)"/>
     </g>
    </g>
   </g>
   <g id="matplotlib.axis_2">
    <g id="ytick_1">
     <g id="line2d_57">
      <path d="M 45.478125 240.763047 
L 436.078125 240.763047 
" clip-path="url(#p5b5a05a650)" style="fill: none; stroke: #b0b0b0; stroke-opacity: 0.3; stroke-width: 0.8; stroke-linecap: square"/>
     </g>
     <g id="line2d_58">
      <defs>
       <path id="m73ea5238c7" d="M 0 0 
L -3.5 0 
" style="stroke: #000000; stroke-width: 0.8"/>
      </defs>
      <g>
       <use xlink:href="#m73ea5238c7" x="45.478125" y="240.763047" style="stroke: #000000; stroke-width: 0.8"/>
      </g>
     </g>
     <g id="text_8">
      <!-- $\mathdefault{10^{1}}$ -->
      <g transform="translate(20.878125 244.562266) scale(0.1 -0.1)">
       <use xlink:href="#DejaVuSans-31" transform="translate(0 0.684375)"/>
       <use xlink:href="#DejaVuSans-30" transform="translate(63.623047 0.684375)"/>
       <use xlink:href="#DejaVuSans-31" transform="translate(128.203125 38.965625) scale(0.7)"/>
      </g>
     </g>
    </g>
    <g id="ytick_2">
     <g id="line2d_59">
      <path d="M 45.478125 171.650263 
L 436.078125 171.650263 
" clip-path="url(#p5b5a05a650)" style="fill: none; stroke: #b0b0b0; stroke-opacity: 0.3; stroke-width: 0.8; stroke-linecap: square"/>
     </g>
     <g id="line2d_60">
      <g>
       <use xlink:href="#m73ea5238c7" x="45.478125" y="171.650263" style="stroke: #000000; stroke-width: 0.8"/>
      </g>
     </g>
     <g id="text_9">
      <!-- $\mathdefault{10^{2}}$ -->
      <g transform="translate(20.878125 175.449482) scale(0.1 -0.1)">
       <use xlink:href="#DejaVuSans-31" transform="translate(0 0.765625)"/>
       <use xlink:href="#DejaVuSans-30" transform="translate(63.623047 0.765625)"/>
       <use xlink:href="#DejaVuSans-32" transform="translate(128.203125 39.046875) scale(0.7)"/>
      </g>
     </g>
    </g>
    <g id="ytick_3">
     <g id="line2d_61">
      <path d="M 45.478125 102.537479 
L 436.078125 102.537479 
" clip-path="url(#p5b5a05a650)" style="fill: none; stroke: #b0b0b0; stroke-opacity: 0.3; stroke-width: 0.8; stroke-linecap: square"/>
     </g>
     <g id="line2d_62">
      <g>
       <use xlink:href="#m73ea5238c7" x="45.478125" y="102.537479" style="stroke: #000000; stroke-width: 0.8"/>
      </g>
     </g>
     <g id="text_10">
      <!-- $\mathdefault{10^{3}}$ -->
      <g transform="translate(20.878125 106.336698) scale(0.1 -0.1)">
       <use xlink:href="#DejaVuSans-31" transform="translate(0 0.765625)"/>
       <use xlink:href="#DejaVuSans-30" transform="translate(63.623047 0.765625)"/>
       <use xlink:href="#DejaVuSans-33" transform="translate(128.203125 39.046875) scale(0.7)"/>
      </g>
     </g>
    </g>
    <g id="ytick_4">
     <g id="line2d_63">
      <path d="M 45.478125 33.424695 
L 436.078125 33.424695 
" clip-path="url(#p5b5a05a650)" style="fill: none; stroke: #b0b0b0; stroke-opacity: 0.3; stroke-width: 0.8; stroke-linecap: square"/>
     </g>
     <g id="line2d_64">
      <g>
       <use xlink:href="#m73ea5238c7" x="45.478125" y="33.424695" style="stroke: #000000; stroke-width: 0.8"/>
      </g>
     </g>
     <g id="text_11">
      <!-- $\mathdefault{10^{4}}$ -->
      <g transform="translate(20.878125 37.223914) scale(0.1 -0.1)">
       <use xlink:href="#DejaVuSans-31" transform="translate(0 0.684375)"/>
       <use xlink:href="#DejaVuSans-30" transform="translate(63.623047 0.684375)"/>
       <use xlink:href="#DejaVuSans-34" transform="translate(128.203125 38.965625) scale(0.7)"/>
      </g>
     </g>
    </g>
    <g id="ytick_5">
     <g id="line2d_65">
      <defs>
       <path id="m69e9b7bd8b" d="M 0 0 
L -2 0 
" style="stroke: #000000; stroke-width: 0.6"/>
      </defs>
      <g>
       <use xlink:href="#m69e9b7bd8b" x="45.478125" y="268.265789" style="stroke: #000000; stroke-width: 0.6"/>
      </g>
     </g>
    </g>
    <g id="ytick_6">
     <g id="line2d_66">
      <g>
       <use xlink:href="#m69e9b7bd8b" x="45.478125" y="261.568068" style="stroke: #000000; stroke-width: 0.6"/>
      </g>
     </g>
    </g>
    <g id="ytick_7">
     <g id="line2d_67">
      <g>
       <use xlink:href="#m69e9b7bd8b" x="45.478125" y="256.095632" style="stroke: #000000; stroke-width: 0.6"/>
      </g>
     </g>
    </g>
    <g id="ytick_8">
     <g id="line2d_68">
      <g>
       <use xlink:href="#m69e9b7bd8b" x="45.478125" y="251.468753" style="stroke: #000000; stroke-width: 0.6"/>
      </g>
     </g>
    </g>
    <g id="ytick_9">
     <g id="line2d_69">
      <g>
       <use xlink:href="#m69e9b7bd8b" x="45.478125" y="247.460768" style="stroke: #000000; stroke-width: 0.6"/>
      </g>
     </g>
    </g>
    <g id="ytick_10">
     <g id="line2d_70">
      <g>
       <use xlink:href="#m69e9b7bd8b" x="45.478125" y="243.925474" style="stroke: #000000; stroke-width: 0.6"/>
      </g>
     </g>
    </g>
    <g id="ytick_11">
     <g id="line2d_71">
      <g>
       <use xlink:href="#m69e9b7bd8b" x="45.478125" y="219.958026" style="stroke: #000000; stroke-width: 0.6"/>
      </g>
     </g>
    </g>
    <g id="ytick_12">
     <g id="line2d_72">
      <g>
       <use xlink:href="#m69e9b7bd8b" x="45.478125" y="207.787869" style="stroke: #000000; stroke-width: 0.6"/>
      </g>
     </g>
    </g>
    <g id="ytick_13">
     <g id="line2d_73">
      <g>
       <use xlink:href="#m69e9b7bd8b" x="45.478125" y="199.153005" style="stroke: #000000; stroke-width: 0.6"/>
      </g>
     </g>
    </g>
    <g id="ytick_14">
     <g id="line2d_74">
      <g>
       <use xlink:href="#m69e9b7bd8b" x="45.478125" y="192.455284" style="stroke: #000000; stroke-width: 0.6"/>
      </g>
     </g>
    </g>
    <g id="ytick_15">
     <g id="line2d_75">
      <g>
       <use xlink:href="#m69e9b7bd8b" x="45.478125" y="186.982848" style="stroke: #000000; stroke-width: 0.6"/>
      </g>
     </g>
    </g>
    <g id="ytick_16">
     <g id="line2d_76">
      <g>
       <use xlink:href="#m69e9b7bd8b" x="45.478125" y="182.355969" style="stroke: #000000; stroke-width: 0.6"/>
      </g>
     </g>
    </g>
    <g id="ytick_17">
     <g id="line2d_77">
      <g>
       <use xlink:href="#m69e9b7bd8b" x="45.478125" y="178.347984" style="stroke: #000000; stroke-width: 0.6"/>
      </g>
     </g>
    </g>
    <g id="ytick_18">
     <g id="line2d_78">
      <g>
       <use xlink:href="#m69e9b7bd8b" x="45.478125" y="174.81269" style="stroke: #000000; stroke-width: 0.6"/>
      </g>
     </g>
    </g>
    <g id="ytick_19">
     <g id="line2d_79">
      <g>
       <use xlink:href="#m69e9b7bd8b" x="45.478125" y="150.845242" style="stroke: #000000; stroke-width: 0.6"/>
      </g>
     </g>
    </g>
    <g id="ytick_20">
     <g id="line2d_80">
      <g>
       <use xlink:href="#m69e9b7bd8b" x="45.478125" y="138.675085" style="stroke: #000000; stroke-width: 0.6"/>
      </g>
     </g>
    </g>
    <g id="ytick_21">
     <g id="line2d_81">
      <g>
       <use xlink:href="#m69e9b7bd8b" x="45.478125" y="130.040221" style="stroke: #000000; stroke-width: 0.6"/>
      </g>
     </g>
    </g>
    <g id="ytick_22">
     <g id="line2d_82">
      <g>
       <use xlink:href="#m69e9b7bd8b" x="45.478125" y="123.3425" style="stroke: #000000; stroke-width: 0.6"/>
      </g>
     </g>
    </g>
    <g id="ytick_23">
     <g id="line2d_83">
      <g>
       <use xlink:href="#m69e9b7bd8b" x="45.478125" y="117.870064" style="stroke: #000000; stroke-width: 0.6"/>
      </g>
     </g>
    </g>
    <g id="ytick_24">
     <g id="line2d_84">
      <g>
       <use xlink:href="#m69e9b7bd8b" x="45.478125" y="113.243185" style="stroke: #000000; stroke-width: 0.6"/>
      </g>
     </g>
    </g>
    <g id="ytick_25">
     <g id="line2d_85">
      <g>
       <use xlink:href="#m69e9b7bd8b" x="45.478125" y="109.2352" style="stroke: #000000; stroke-width: 0.6"/>
      </g>
     </g>
    </g>
    <g id="ytick_26">
     <g id="line2d_86">
      <g>
       <use xlink:href="#m69e9b7bd8b" x="45.478125" y="105.699906" style="stroke: #000000; stroke-width: 0.6"/>
      </g>
     </g>
    </g>
    <g id="ytick_27">
     <g id="line2d_87">
      <g>
       <use xlink:href="#m69e9b7bd8b" x="45.478125" y="81.732458" style="stroke: #000000; stroke-width: 0.6"/>
      </g>
     </g>
    </g>
    <g id="ytick_28">
     <g id="line2d_88">
      <g>
       <use xlink:href="#m69e9b7bd8b" x="45.478125" y="69.562301" style="stroke: #000000; stroke-width: 0.6"/>
      </g>
     </g>
    </g>
    <g id="ytick_29">
     <g id="line2d_89">
      <g>
       <use xlink:href="#m69e9b7bd8b" x="45.478125" y="60.927437" style="stroke: #000000; stroke-width: 0.6"/>
      </g>
     </g>
    </g>
    <g id="ytick_30">
     <g id="line2d_90">
      <g>
       <use xlink:href="#m69e9b7bd8b" x="45.478125" y="54.229716" style="stroke: #000000; stroke-width: 0.6"/>
      </g>
     </g>
    </g>
    <g id="ytick_31">
     <g id="line2d_91">
      <g>
       <use xlink:href="#m69e9b7bd8b" x="45.478125" y="48.75728" style="stroke: #000000; stroke-width: 0.6"/>
      </g>
     </g>
    </g>
    <g id="ytick_32">
     <g id="line2d_92">
      <g>
       <use xlink:href="#m69e9b7bd8b" x="45.478125" y="44.130401" style="stroke: #000000; stroke-width: 0.6"/>
      </g>
     </g>
    </g>
    <g id="ytick_33">
     <g id="line2d_93">
      <g>
       <use xlink:href="#m69e9b7bd8b" x="45.478125" y="40.122416" style="stroke: #000000; stroke-width: 0.6"/>
      </g>
     </g>
    </g>
    <g id="ytick_34">
     <g id="line2d_94">
      <g>
       <use xlink:href="#m69e9b7bd8b" x="45.478125" y="36.587123" style="stroke: #000000; stroke-width: 0.6"/>
      </g>
     </g>
    </g>
    <g id="text_12">
     <!-- Rate $R$ -->
     <g transform="translate(14.798438 163.708125) rotate(-90) scale(0.1 -0.1)">
      <defs>
       <path id="DejaVuSans-52" d="M 2841 2188 
Q 3044 2119 3236 1894 
Q 3428 1669 3622 1275 
L 4263 0 
L 3584 0 
L 2988 1197 
Q 2756 1666 2539 1819 
Q 2322 1972 1947 1972 
L 1259 1972 
L 1259 0 
L 628 0 
L 628 4666 
L 2053 4666 
Q 2853 4666 3247 4331 
Q 3641 3997 3641 3322 
Q 3641 2881 3436 2590 
Q 3231 2300 2841 2188 
z
M 1259 4147 
L 1259 2491 
L 2053 2491 
Q 2509 2491 2742 2702 
Q 2975 2913 2975 3322 
Q 2975 3731 2742 3939 
Q 2509 4147 2053 4147 
L 1259 4147 
z
" transform="scale(0.015625)"/>
       <path id="DejaVuSans-74" d="M 1172 4494 
L 1172 3500 
L 2356 3500 
L 2356 3053 
L 1172 3053 
L 1172 1153 
Q 1172 725 1289 603 
Q 1406 481 1766 481 
L 2356 481 
L 2356 0 
L 1766 0 
Q 1100 0 847 248 
Q 594 497 594 1153 
L 594 3053 
L 172 3053 
L 172 3500 
L 594 3500 
L 594 4494 
L 1172 4494 
z
" transform="scale(0.015625)"/>
       <path id="DejaVuSans-Oblique-52" d="M 1613 4147 
L 1294 2491 
L 2106 2491 
Q 2584 2491 2879 2755 
Q 3175 3019 3175 3444 
Q 3175 3784 2976 3965 
Q 2778 4147 2406 4147 
L 1613 4147 
z
M 2772 2241 
Q 2972 2194 3105 2009 
Q 3238 1825 3413 1275 
L 3809 0 
L 3144 0 
L 2778 1197 
Q 2638 1659 2453 1815 
Q 2269 1972 1888 1972 
L 1191 1972 
L 806 0 
L 172 0 
L 1081 4666 
L 2503 4666 
Q 3150 4666 3495 4373 
Q 3841 4081 3841 3531 
Q 3841 3044 3547 2687 
Q 3253 2331 2772 2241 
z
" transform="scale(0.015625)"/>
      </defs>
      <use xlink:href="#DejaVuSans-52" transform="translate(0 0.09375)"/>
      <use xlink:href="#DejaVuSans-61" transform="translate(69.482422 0.09375)"/>
      <use xlink:href="#DejaVuSans-74" transform="translate(130.761719 0.09375)"/>
      <use xlink:href="#DejaVuSans-65" transform="translate(169.970703 0.09375)"/>
      <use xlink:href="#DejaVuSans-20" transform="translate(231.494141 0.09375)"/>
      <use xlink:href="#DejaVuSans-Oblique-52" transform="translate(263.28125 0.09375)"/>
     </g>
    </g>
   </g>
   <g id="line2d_95">
    <path d="M 63.23267 33.658125 
L 134.250852 35.681116 
L 205.269034 50.744318 
L 276.287216 98.725598 
L 347.305398 164.602917 
L 418.32358 233.372114 
" clip-path="url(#p5b5a05a650)" style="fill: none; stroke-dasharray: 1.5,2.475; stroke-dashoffset: 0; stroke: #7f7f7f; stroke-width: 1.5"/>
    <defs>
     <path id="m592e644290" d="M -3 3 
L 3 -3 
M -3 -3 
L 3 3 
" style="stroke: #7f7f7f"/>
    </defs>
    <g clip-path="url(#p5b5a05a650)">
     <use xlink:href="#m592e644290" x="63.23267" y="33.658125" style="fill: #7f7f7f; stroke: #7f7f7f"/>
     <use xlink:href="#m592e644290" x="134.250852" y="35.681116" style="fill: #7f7f7f; stroke: #7f7f7f"/>
     <use xlink:href="#m592e644290" x="205.269034" y="50.744318" style="fill: #7f7f7f; stroke: #7f7f7f"/>
     <use xlink:href="#m592e644290" x="276.287216" y="98.725598" style="fill: #7f7f7f; stroke: #7f7f7f"/>
     <use xlink:href="#m592e644290" x="347.305398" y="164.602917" style="fill: #7f7f7f; stroke: #7f7f7f"/>
     <use xlink:href="#m592e644290" x="418.32358" y="233.372114" style="fill: #7f7f7f; stroke: #7f7f7f"/>
    </g>
   </g>
   <g id="line2d_96">
    <path d="M 63.23267 60.744136 
L 134.250852 62.767127 
L 205.269034 77.830329 
L 276.287216 125.811609 
L 347.305398 191.688928 
L 418.32358 260.458125 
" clip-path="url(#p5b5a05a650)" style="fill: none; stroke: #1f77b4; stroke-width: 1.5; stroke-linecap: square"/>
   </g>
   <g id="line2d_97">
    <path d="M 63.23267 125.740023 
L 134.250852 125.973251 
L 205.269034 128.210972 
L 276.287216 144.461313 
L 347.305398 193.834579 
L 418.32358 260.016663 
" clip-path="url(#p5b5a05a650)" style="fill: none; stroke: #ff7f0e; stroke-width: 1.5; stroke-linecap: square"/>
   </g>
   <g id="patch_3">
    <path d="M 45.478125 271.798125 
L 45.478125 22.318125 
" style="fill: none; stroke: #000000; stroke-width: 0.8; stroke-linejoin: miter; stroke-linecap: square"/>
   </g>
   <g id="patch_4">
    <path d="M 436.078125 271.798125 
L 436.078125 22.318125 
" style="fill: none; stroke: #000000; stroke-width: 0.8; stroke-linejoin: miter; stroke-linecap: square"/>
   </g>
   <g id="patch_5">
    <path d="M 45.478125 271.798125 
L 436.078125 271.798125 
" style="fill: none; stroke: #000000; stroke-width: 0.8; stroke-linejoin: miter; stroke-linecap: square"/>
   </g>
   <g id="patch_6">
    <path d="M 45.478125 22.318125 
L 436.078125 22.318125 
" style="fill: none; stroke: #000000; stroke-width: 0.8; stroke-linejoin: miter; stroke-linecap: square"/>
   </g>
   <g id="text_13">
    <!-- Rate vs. $\tau_{emit}$: canonical schedules ($N=10$, $e_d=0.01$) -->
    <g transform="translate(79.618125 16.318125) scale(0.12 -0.12)">
     <defs>
      <path id="DejaVuSans-76" d="M 191 3500 
L 800 3500 
L 1894 563 
L 2988 3500 
L 3597 3500 
L 2284 0 
L 1503 0 
L 191 3500 
z
" transform="scale(0.015625)"/>
      <path id="DejaVuSans-2e" d="M 684 794 
L 1344 794 
L 1344 0 
L 684 0 
L 684 794 
z
" transform="scale(0.015625)"/>
      <path id="DejaVuSans-3a" d="M 750 794 
L 1409 794 
L 1409 0 
L 750 0 
L 750 794 
z
M 750 3309 
L 1409 3309 
L 1409 2516 
L 750 2516 
L 750 3309 
z
" transform="scale(0.015625)"/>
      <path id="DejaVuSans-6e" d="M 3513 2113 
L 3513 0 
L 2938 0 
L 2938 2094 
Q 2938 2591 2744 2837 
Q 2550 3084 2163 3084 
Q 1697 3084 1428 2787 
Q 1159 2491 1159 1978 
L 1159 0 
L 581 0 
L 581 3500 
L 1159 3500 
L 1159 2956 
Q 1366 3272 1645 3428 
Q 1925 3584 2291 3584 
Q 2894 3584 3203 3211 
Q 3513 2838 3513 2113 
z
" transform="scale(0.015625)"/>
      <path id="DejaVuSans-69" d="M 603 3500 
L 1178 3500 
L 1178 0 
L 603 0 
L 603 3500 
z
M 603 4863 
L 1178 4863 
L 1178 4134 
L 603 4134 
L 603 4863 
z
" transform="scale(0.015625)"/>
      <path id="DejaVuSans-68" d="M 3513 2113 
L 3513 0 
L 2938 0 
L 2938 2094 
Q 2938 2591 2744 2837 
Q 2550 3084 2163 3084 
Q 1697 3084 1428 2787 
Q 1159 2491 1159 1978 
L 1159 0 
L 581 0 
L 581 4863 
L 1159 4863 
L 1159 2956 
Q 1366 3272 1645 3428 
Q 1925 3584 2291 3584 
Q 2894 3584 3203 3211 
Q 3513 2838 3513 2113 
z
" transform="scale(0.015625)"/>
      <path id="DejaVuSans-64" d="M 2906 2969 
L 2906 4863 
L 3481 4863 
L 3481 0 
L 2906 0 
L 2906 525 
Q 2725 213 2448 61 
Q 2172 -91 1784 -91 
Q 1150 -91 751 415 
Q 353 922 353 1747 
Q 353 2572 751 3078 
Q 1150 3584 1784 3584 
Q 2172 3584 2448 3432 
Q 2725 3281 2906 2969 
z
M 947 1747 
Q 947 1113 1208 752 
Q 1469 391 1925 391 
Q 2381 391 2643 752 
Q 2906 1113 2906 1747 
Q 2906 2381 2643 2742 
Q 2381 3103 1925 3103 
Q 1469 3103 1208 2742 
Q 947 2381 947 1747 
z
" transform="scale(0.015625)"/>
      <path id="DejaVuSans-75" d="M 544 1381 
L 544 3500 
L 1119 3500 
L 1119 1403 
Q 1119 906 1312 657 
Q 1506 409 1894 409 
Q 2359 409 2629 706 
Q 2900 1003 2900 1516 
L 2900 3500 
L 3475 3500 
L 3475 0 
L 2900 0 
L 2900 538 
Q 2691 219 2414 64 
Q 2138 -91 1772 -91 
Q 1169 -91 856 284 
Q 544 659 544 1381 
z
M 1991 3584 
L 1991 3584 
z
" transform="scale(0.015625)"/>
      <path id="DejaVuSans-Oblique-4e" d="M 1081 4666 
L 1931 4666 
L 3219 666 
L 4000 4666 
L 4616 4666 
L 3706 0 
L 2853 0 
L 1569 4025 
L 788 0 
L 172 0 
L 1081 4666 
z
" transform="scale(0.015625)"/>
      <path id="DejaVuSans-3d" d="M 678 2906 
L 4684 2906 
L 4684 2381 
L 678 2381 
L 678 2906 
z
M 678 1631 
L 4684 1631 
L 4684 1100 
L 678 1100 
L 678 1631 
z
" transform="scale(0.015625)"/>
      <path id="DejaVuSans-2c" d="M 750 794 
L 1409 794 
L 1409 256 
L 897 -744 
L 494 -744 
L 750 256 
L 750 794 
z
" transform="scale(0.015625)"/>
      <path id="DejaVuSans-Oblique-64" d="M 2675 525 
Q 2444 222 2128 65 
Q 1813 -91 1428 -91 
Q 903 -91 598 267 
Q 294 625 294 1247 
Q 294 1766 478 2236 
Q 663 2706 1013 3078 
Q 1244 3325 1534 3454 
Q 1825 3584 2144 3584 
Q 2481 3584 2739 3421 
Q 2997 3259 3138 2956 
L 3513 4863 
L 4091 4863 
L 3144 0 
L 2566 0 
L 2675 525 
z
M 891 1350 
Q 891 897 1095 644 
Q 1300 391 1663 391 
Q 1931 391 2161 520 
Q 2391 650 2566 903 
Q 2750 1166 2856 1509 
Q 2963 1853 2963 2188 
Q 2963 2622 2758 2865 
Q 2553 3109 2194 3109 
Q 1922 3109 1687 2981 
Q 1453 2853 1288 2613 
Q 1106 2353 998 2009 
Q 891 1666 891 1350 
z
" transform="scale(0.015625)"/>
     </defs>
     <use xlink:href="#DejaVuSans-52" transform="translate(0 0.015625)"/>
     <use xlink:href="#DejaVuSans-61" transform="translate(69.482422 0.015625)"/>
     <use xlink:href="#DejaVuSans-74" transform="translate(130.761719 0.015625)"/>
     <use xlink:href="#DejaVuSans-65" transform="translate(169.970703 0.015625)"/>
     <use xlink:href="#DejaVuSans-20" transform="translate(231.494141 0.015625)"/>
     <use xlink:href="#DejaVuSans-76" transform="translate(263.28125 0.015625)"/>
     <use xlink:href="#DejaVuSans-73" transform="translate(322.460938 0.015625)"/>
     <use xlink:href="#DejaVuSans-2e" transform="translate(374.560547 0.015625)"/>
     <use xlink:href="#DejaVuSans-20" transform="translate(406.347656 0.015625)"/>
     <use xlink:href="#DejaVuSans-Oblique-3c4" transform="translate(438.134766 0.015625)"/>
     <use xlink:href="#DejaVuSans-Oblique-65" transform="translate(498.339844 -16.390625) scale(0.7)"/>
     <use xlink:href="#DejaVuSans-Oblique-6d" transform="translate(541.40625 -16.390625) scale(0.7)"/>
     <use xlink:href="#DejaVuSans-Oblique-69" transform="translate(609.594727 -16.390625) scale(0.7)"/>
     <use xlink:href="#DejaVuSans-Oblique-74" transform="translate(629.042969 -16.390625) scale(0.7)"/>
     <use xlink:href="#DejaVuSans-3a" transform="translate(659.223633 0.015625)"/>
     <use xlink:href="#DejaVuSans-20" transform="translate(692.915039 0.015625)"/>
     <use xlink:href="#DejaVuSans-63" transform="translate(724.702148 0.015625)"/>
     <use xlink:href="#DejaVuSans-61" transform="translate(779.682617 0.015625)"/>
     <use xlink:href="#DejaVuSans-6e" transform="translate(840.961914 0.015625)"/>
     <use xlink:href="#DejaVuSans-6f" transform="translate(904.34082 0.015625)"/>
     <use xlink:href="#DejaVuSans-6e" transform="translate(965.522461 0.015625)"/>
     <use xlink:href="#DejaVuSans-69" transform="translate(1028.901367 0.015625)"/>
     <use xlink:href="#DejaVuSans-63" transform="translate(1056.68457 0.015625)"/>
     <use xlink:href="#DejaVuSans-61" transform="translate(1111.665039 0.015625)"/>
     <use xlink:href="#DejaVuSans-6c" transform="translate(1172.944336 0.015625)"/>
     <use xlink:href="#DejaVuSans-20" transform="translate(1200.727539 0.015625)"/>
     <use xlink:href="#DejaVuSans-73" transform="translate(1232.514648 0.015625)"/>
     <use xlink:href="#DejaVuSans-63" transform="translate(1284.614258 0.015625)"/>
     <use xlink:href="#DejaVuSans-68" transform="translate(1339.594727 0.015625)"/>
     <use xlink:href="#DejaVuSans-65" transform="translate(1402.973633 0.015625)"/>
     <use xlink:href="#DejaVuSans-64" transform="translate(1464.49707 0.015625)"/>
     <use xlink:href="#DejaVuSans-75" transform="translate(1527.973633 0.015625)"/>
     <use xlink:href="#DejaVuSans-6c" transform="translate(1591.352539 0.015625)"/>
     <use xlink:href="#DejaVuSans-65" transform="translate(1619.135742 0.015625)"/>
     <use xlink:href="#DejaVuSans-73" transform="translate(1680.65918 0.015625)"/>
     <use xlink:href="#DejaVuSans-20" transform="translate(1732.758789 0.015625)"/>
     <use xlink:href="#DejaVuSans-28" transform="translate(1764.545898 0.015625)"/>
     <use xlink:href="#DejaVuSans-Oblique-4e" transform="translate(1803.55957 0.015625)"/>
     <use xlink:href="#DejaVuSans-3d" transform="translate(1897.84668 0.015625)"/>
     <use xlink:href="#DejaVuSans-31" transform="translate(2001.118164 0.015625)"/>
     <use xlink:href="#DejaVuSans-30" transform="translate(2064.741211 0.015625)"/>
     <use xlink:href="#DejaVuSans-2c" transform="translate(2128.364258 0.015625)"/>
     <use xlink:href="#DejaVuSans-20" transform="translate(2160.151367 0.015625)"/>
     <use xlink:href="#DejaVuSans-Oblique-65" transform="translate(2191.938477 0.015625)"/>
     <use xlink:href="#DejaVuSans-Oblique-64" transform="translate(2253.461914 -16.390625) scale(0.7)"/>
     <use xlink:href="#DejaVuSans-3d" transform="translate(2320.112305 0.015625)"/>
     <use xlink:href="#DejaVuSans-30" transform="translate(2423.383789 0.015625)"/>
     <use xlink:href="#DejaVuSans-2e" transform="translate(2487.006836 0.015625)"/>
     <use xlink:href="#DejaVuSans-30" transform="translate(2518.793945 0.015625)"/>
     <use xlink:href="#DejaVuSans-31" transform="translate(2582.416992 0.015625)"/>
     <use xlink:href="#DejaVuSans-29" transform="translate(2646.040039 0.015625)"/>
    </g>
   </g>
   <g id="legend_1">
    <g id="patch_7">
     <path d="M 52.478125 266.798125 
L 268.28125 266.798125 
Q 270.28125 266.798125 270.28125 264.798125 
L 270.28125 221.76375 
Q 270.28125 219.76375 268.28125 219.76375 
L 52.478125 219.76375 
Q 50.478125 219.76375 50.478125 221.76375 
L 50.478125 264.798125 
Q 50.478125 266.798125 52.478125 266.798125 
z
" style="fill: #ffffff; opacity: 0.8; stroke: #cccccc; stroke-linejoin: miter"/>
    </g>
    <g id="line2d_98">
     <path d="M 54.478125 227.862187 
L 64.478125 227.862187 
L 74.478125 227.862187 
" style="fill: none; stroke-dasharray: 1.5,2.475; stroke-dashoffset: 0; stroke: #7f7f7f; stroke-width: 1.5"/>
     <g>
      <use xlink:href="#m592e644290" x="64.478125" y="227.862187" style="fill: #7f7f7f; stroke: #7f7f7f"/>
     </g>
    </g>
    <g id="text_14">
     <!-- Raw chain (no purification) -->
     <g transform="translate(82.478125 231.362187) scale(0.1 -0.1)">
      <defs>
       <path id="DejaVuSans-77" d="M 269 3500 
L 844 3500 
L 1563 769 
L 2278 3500 
L 2956 3500 
L 3675 769 
L 4391 3500 
L 4966 3500 
L 4050 0 
L 3372 0 
L 2619 2869 
L 1863 0 
L 1184 0 
L 269 3500 
z
" transform="scale(0.015625)"/>
       <path id="DejaVuSans-70" d="M 1159 525 
L 1159 -1331 
L 581 -1331 
L 581 3500 
L 1159 3500 
L 1159 2969 
Q 1341 3281 1617 3432 
Q 1894 3584 2278 3584 
Q 2916 3584 3314 3078 
Q 3713 2572 3713 1747 
Q 3713 922 3314 415 
Q 2916 -91 2278 -91 
Q 1894 -91 1617 61 
Q 1341 213 1159 525 
z
M 3116 1747 
Q 3116 2381 2855 2742 
Q 2594 3103 2138 3103 
Q 1681 3103 1420 2742 
Q 1159 2381 1159 1747 
Q 1159 1113 1420 752 
Q 1681 391 2138 391 
Q 2594 391 2855 752 
Q 3116 1113 3116 1747 
z
" transform="scale(0.015625)"/>
       <path id="DejaVuSans-72" d="M 2631 2963 
Q 2534 3019 2420 3045 
Q 2306 3072 2169 3072 
Q 1681 3072 1420 2755 
Q 1159 2438 1159 1844 
L 1159 0 
L 581 0 
L 581 3500 
L 1159 3500 
L 1159 2956 
Q 1341 3275 1631 3429 
Q 1922 3584 2338 3584 
Q 2397 3584 2469 3576 
Q 2541 3569 2628 3553 
L 2631 2963 
z
" transform="scale(0.015625)"/>
       <path id="DejaVuSans-66" d="M 2375 4863 
L 2375 4384 
L 1825 4384 
Q 1516 4384 1395 4259 
Q 1275 4134 1275 3809 
L 1275 3500 
L 2222 3500 
L 2222 3053 
L 1275 3053 
L 1275 0 
L 697 0 
L 697 3053 
L 147 3053 
L 147 3500 
L 697 3500 
L 697 3744 
Q 697 4328 969 4595 
Q 1241 4863 1831 4863 
L 2375 4863 
z
" transform="scale(0.015625)"/>
      </defs>
      <use xlink:href="#DejaVuSans-52"/>
      <use xlink:href="#DejaVuSans-61" x="67.232422"/>
      <use xlink:href="#DejaVuSans-77" x="128.511719"/>
      <use xlink:href="#DejaVuSans-20" x="210.298828"/>
      <use xlink:href="#DejaVuSans-63" x="242.085938"/>
      <use xlink:href="#DejaVuSans-68" x="297.066406"/>
      <use xlink:href="#DejaVuSans-61" x="360.445312"/>
      <use xlink:href="#DejaVuSans-69" x="421.724609"/>
      <use xlink:href="#DejaVuSans-6e" x="449.507812"/>
      <use xlink:href="#DejaVuSans-20" x="512.886719"/>
      <use xlink:href="#DejaVuSans-28" x="544.673828"/>
      <use xlink:href="#DejaVuSans-6e" x="583.6875"/>
      <use xlink:href="#DejaVuSans-6f" x="647.066406"/>
      <use xlink:href="#DejaVuSans-20" x="708.248047"/>
      <use xlink:href="#DejaVuSans-70" x="740.035156"/>
      <use xlink:href="#DejaVuSans-75" x="803.511719"/>
      <use xlink:href="#DejaVuSans-72" x="866.890625"/>
      <use xlink:href="#DejaVuSans-69" x="908.003906"/>
      <use xlink:href="#DejaVuSans-66" x="935.787109"/>
      <use xlink:href="#DejaVuSans-69" x="970.992188"/>
      <use xlink:href="#DejaVuSans-63" x="998.775391"/>
      <use xlink:href="#DejaVuSans-61" x="1053.755859"/>
      <use xlink:href="#DejaVuSans-74" x="1115.035156"/>
      <use xlink:href="#DejaVuSans-69" x="1154.244141"/>
      <use xlink:href="#DejaVuSans-6f" x="1182.027344"/>
      <use xlink:href="#DejaVuSans-6e" x="1243.208984"/>
      <use xlink:href="#DejaVuSans-29" x="1306.587891"/>
     </g>
    </g>
    <g id="line2d_99">
     <path d="M 54.478125 242.540312 
L 64.478125 242.540312 
L 74.478125 242.540312 
" style="fill: none; stroke: #1f77b4; stroke-width: 1.5; stroke-linecap: square"/>
    </g>
    <g id="text_15">
     <!-- Paper schedule (optimistic pumping) -->
     <g transform="translate(82.478125 246.040312) scale(0.1 -0.1)">
      <defs>
       <path id="DejaVuSans-50" d="M 1259 4147 
L 1259 2394 
L 2053 2394 
Q 2494 2394 2734 2622 
Q 2975 2850 2975 3272 
Q 2975 3691 2734 3919 
Q 2494 4147 2053 4147 
L 1259 4147 
z
M 628 4666 
L 2053 4666 
Q 2838 4666 3239 4311 
Q 3641 3956 3641 3272 
Q 3641 2581 3239 2228 
Q 2838 1875 2053 1875 
L 1259 1875 
L 1259 0 
L 628 0 
L 628 4666 
z
" transform="scale(0.015625)"/>
       <path id="DejaVuSans-6d" d="M 3328 2828 
Q 3544 3216 3844 3400 
Q 4144 3584 4550 3584 
Q 5097 3584 5394 3201 
Q 5691 2819 5691 2113 
L 5691 0 
L 5113 0 
L 5113 2094 
Q 5113 2597 4934 2840 
Q 4756 3084 4391 3084 
Q 3944 3084 3684 2787 
Q 3425 2491 3425 1978 
L 3425 0 
L 2847 0 
L 2847 2094 
Q 2847 2600 2669 2842 
Q 2491 3084 2119 3084 
Q 1678 3084 1418 2786 
Q 1159 2488 1159 1978 
L 1159 0 
L 581 0 
L 581 3500 
L 1159 3500 
L 1159 2956 
Q 1356 3278 1631 3431 
Q 1906 3584 2284 3584 
Q 2666 3584 2933 3390 
Q 3200 3197 3328 2828 
z
" transform="scale(0.015625)"/>
      </defs>
      <use xlink:href="#DejaVuSans-50"/>
      <use xlink:href="#DejaVuSans-61" x="55.802734"/>
      <use xlink:href="#DejaVuSans-70" x="117.082031"/>
      <use xlink:href="#DejaVuSans-65" x="180.558594"/>
      <use xlink:href="#DejaVuSans-72" x="242.082031"/>
      <use xlink:href="#DejaVuSans-20" x="283.195312"/>
      <use xlink:href="#DejaVuSans-73" x="314.982422"/>
      <use xlink:href="#DejaVuSans-63" x="367.082031"/>
      <use xlink:href="#DejaVuSans-68" x="422.0625"/>
      <use xlink:href="#DejaVuSans-65" x="485.441406"/>
      <use xlink:href="#DejaVuSans-64" x="546.964844"/>
      <use xlink:href="#DejaVuSans-75" x="610.441406"/>
      <use xlink:href="#DejaVuSans-6c" x="673.820312"/>
      <use xlink:href="#DejaVuSans-65" x="701.603516"/>
      <use xlink:href="#DejaVuSans-20" x="763.126953"/>
      <use xlink:href="#DejaVuSans-28" x="794.914062"/>
      <use xlink:href="#DejaVuSans-6f" x="833.927734"/>
      <use xlink:href="#DejaVuSans-70" x="895.109375"/>
      <use xlink:href="#DejaVuSans-74" x="958.585938"/>
      <use xlink:href="#DejaVuSans-69" x="997.794922"/>
      <use xlink:href="#DejaVuSans-6d" x="1025.578125"/>
      <use xlink:href="#DejaVuSans-69" x="1122.990234"/>
      <use xlink:href="#DejaVuSans-73" x="1150.773438"/>
      <use xlink:href="#DejaVuSans-74" x="1202.873047"/>
      <use xlink:href="#DejaVuSans-69" x="1242.082031"/>
      <use xlink:href="#DejaVuSans-63" x="1269.865234"/>
      <use xlink:href="#DejaVuSans-20" x="1324.845703"/>
      <use xlink:href="#DejaVuSans-70" x="1356.632812"/>
      <use xlink:href="#DejaVuSans-75" x="1420.109375"/>
      <use xlink:href="#DejaVuSans-6d" x="1483.488281"/>
      <use xlink:href="#DejaVuSans-70" x="1580.900391"/>
      <use xlink:href="#DejaVuSans-69" x="1644.376953"/>
      <use xlink:href="#DejaVuSans-6e" x="1672.160156"/>
      <use xlink:href="#DejaVuSans-67" x="1735.539062"/>
      <use xlink:href="#DejaVuSans-29" x="1799.015625"/>
     </g>
    </g>
    <g id="line2d_100">
     <path d="M 54.478125 257.218437 
L 64.478125 257.218437 
L 74.478125 257.218437 
" style="fill: none; stroke: #ff7f0e; stroke-width: 1.5; stroke-linecap: square"/>
    </g>
    <g id="text_16">
     <!-- Heralded end-node pumping -->
     <g transform="translate(82.478125 260.718437) scale(0.1 -0.1)">
      <defs>
       <path id="DejaVuSans-48" d="M 628 4666 
L 1259 4666 
L 1259 2753 
L 3553 2753 
L 3553 4666 
L 4184 4666 
L 4184 0 
L 3553 0 
L 3553 2222 
L 1259 2222 
L 1259 0 
L 628 0 
L 628 4666 
z
" transform="scale(0.015625)"/>
       <path id="DejaVuSans-2d" d="M 313 2009 
L 1997 2009 
L 1997 1497 
L 313 1497 
L 313 2009 
z
" transform="scale(0.015625)"/>
      </defs>
      <use xlink:href="#DejaVuSans-48"/>
      <use xlink:href="#DejaVuSans-65" x="75.195312"/>
      <use xlink:href="#DejaVuSans-72" x="136.71875"/>
      <use xlink:href="#DejaVuSans-61" x="177.832031"/>
      <use xlink:href="#DejaVuSans-6c" x="239.111328"/>
      <use xlink:href="#DejaVuSans-64" x="266.894531"/>
      <use xlink:href="#DejaVuSans-65" x="330.371094"/>
      <use xlink:href="#DejaVuSans-64" x="391.894531"/>
      <use xlink:href="#DejaVuSans-20" x="455.371094"/>
      <use xlink:href="#DejaVuSans-65" x="487.158203"/>
      <use xlink:href="#DejaVuSans-6e" x="548.681641"/>
      <use xlink:href="#DejaVuSans-64" x="612.060547"/>
      <use xlink:href="#DejaVuSans-2d" x="675.537109"/>
      <use xlink:href="#DejaVuSans-6e" x="711.621094"/>
      <use xlink:href="#DejaVuSans-6f" x="775"/>
      <use xlink:href="#DejaVuSans-64" x="836.181641"/>
      <use xlink:href="#DejaVuSans-65" x="899.658203"/>
      <use xlink:href="#DejaVuSans-20" x="961.181641"/>
      <use xlink:href="#DejaVuSans-70" x="992.96875"/>
      <use xlink:href="#DejaVuSans-75" x="1056.445312"/>
      <use xlink:href="#DejaVuSans-6d" x="1119.824219"/>
      <use xlink:href="#DejaVuSans-70" x="1217.236328"/>
      <use xlink:href="#DejaVuSans-69" x="1280.712891"/>
      <use xlink:href="#DejaVuSans-6e" x="1308.496094"/>
      <use xlink:href="#DejaVuSans-67" x="1371.875"/>
     </g>
    </g>
   </g>
  </g>
 </g>
 <defs>
  <clipPath id="p5b5a05a650">
   <rect x="45.478125" y="22.318125" width="390.6" height="249.48"/>
  </clipPath>
 </defs>
</svg>
