<?xml version="1.0" encoding="UTF-8" standalone="no"?>
<!DOCTYPE svg PUBLIC "-//W3C//DTD SVG 1.1//EN"
 "http://www.w3.org/Graphics/SVG/1.1/DTD/svg11.dtd">
<!-- Generated by graphviz version 2.43.0 (0)
 -->
<!-- Title: Sigma_N2_example Pages: 1 -->
<svg width="1069pt" height="701pt"
 viewBox="0.00 0.00 1068.97 701.33" xmlns="http://www.w3.org/2000/svg" xmlns:xlink="http://www.w3.org/1999/xlink">
<g id="graph0" class="graph" transform="scale(1 1) rotate(0) translate(4 697.33)">
<title>Sigma_N2_example</title>
<polygon fill="white" stroke="transparent" points="-4,4 -4,-697.33 1064.97,-697.33 1064.97,4 -4,4"/>
<!-- n0 -->
<g id="node1" class="node">
<title>n0</title>
<ellipse fill="#aed6f1" stroke="black" cx="185.86" cy="-28.99" rx="55.72" ry="28.98"/>
<text text-anchor="start" x="154.36" y="-37.49" font-family="Helvetica,sans-Serif" font-size="10.00">#0 GenNode</text>
<text text-anchor="start" x="157.36" y="-26.49" font-family="Helvetica,sans-Serif" font-size="10.00">hop=0 &#160;t=0</text>
<text text-anchor="start" x="164.36" y="-15.49" font-family="Helvetica,sans-Serif" font-size="10.00">s_gen=0</text>
</g>
<!-- n2 -->
<g id="node3" class="node">
<title>n2</title>
<polygon fill="#c39bd3" stroke="black" points="164.36,-143.47 77.36,-143.47 77.36,-102.47 164.36,-102.47 164.36,-143.47"/>
<text text-anchor="start" x="85.36" y="-131.47" font-family="Helvetica,sans-Serif" font-size="10.00">#2 PurifyNode</text>
<text text-anchor="start" x="95.36" y="-120.47" font-family="Helvetica,sans-Serif" font-size="10.00">circuit=YY</text>
<text text-anchor="start" x="100.36" y="-109.47" font-family="Helvetica,sans-Serif" font-size="10.00">κ=RGSS</text>
</g>
<!-- n0&#45;&gt;n2 -->
<g id="edge1" class="edge">
<title>n0&#45;&gt;n2</title>
<path fill="none" stroke="#555555" d="M167.06,-56.6C158.73,-68.38 148.94,-82.24 140.51,-94.16"/>
<polygon fill="#555555" stroke="#555555" points="137.58,-92.26 134.66,-102.44 143.29,-96.3 137.58,-92.26"/>
</g>
<!-- n1 -->
<g id="node2" class="node">
<title>n1</title>
<ellipse fill="#aed6f1" stroke="black" cx="55.86" cy="-28.99" rx="55.72" ry="28.98"/>
<text text-anchor="start" x="24.36" y="-37.49" font-family="Helvetica,sans-Serif" font-size="10.00">#1 GenNode</text>
<text text-anchor="start" x="27.36" y="-26.49" font-family="Helvetica,sans-Serif" font-size="10.00">hop=0 &#160;t=0</text>
<text text-anchor="start" x="34.36" y="-15.49" font-family="Helvetica,sans-Serif" font-size="10.00">s_gen=0</text>
</g>
<!-- n1&#45;&gt;n2 -->
<g id="edge2" class="edge">
<title>n1&#45;&gt;n2</title>
<path fill="none" stroke="#555555" d="M74.66,-56.6C82.99,-68.38 92.79,-82.24 101.21,-94.16"/>
<polygon fill="#555555" stroke="#555555" points="98.43,-96.3 107.06,-102.44 104.15,-92.26 98.43,-96.3"/>
</g>
<!-- n4 -->
<g id="node5" class="node">
<title>n4</title>
<polygon fill="#f5b041" stroke="black" points="290.36,-228.97 185.36,-228.97 185.36,-187.97 290.36,-187.97 290.36,-228.97"/>
<text text-anchor="start" x="193.36" y="-216.97" font-family="Helvetica,sans-Serif" font-size="10.00">#4 AbsaBsmNode</text>
<text text-anchor="start" x="221.36" y="-205.97" font-family="Helvetica,sans-Serif" font-size="10.00">hop=0</text>
<text text-anchor="start" x="219.36" y="-194.97" font-family="Helvetica,sans-Serif" font-size="10.00">κ=(0,1)</text>
</g>
<!-- n2&#45;&gt;n4 -->
<g id="edge3" class="edge">
<title>n2&#45;&gt;n4</title>
<path fill="none" stroke="#555555" d="M148.29,-143.55C164.31,-154.98 184.71,-169.54 202,-181.87"/>
<polygon fill="#555555" stroke="#555555" points="200.02,-184.76 210.2,-187.72 204.09,-179.07 200.02,-184.76"/>
</g>
<!-- n3 -->
<g id="node4" class="node">
<title>n3</title>
<ellipse fill="#aed6f1" stroke="black" cx="237.86" cy="-122.97" rx="55.72" ry="28.98"/>
<text text-anchor="start" x="206.36" y="-131.47" font-family="Helvetica,sans-Serif" font-size="10.00">#3 GenNode</text>
<text text-anchor="start" x="209.36" y="-120.47" font-family="Helvetica,sans-Serif" font-size="10.00">hop=0 &#160;t=0</text>
<text text-anchor="start" x="216.36" y="-109.47" font-family="Helvetica,sans-Serif" font-size="10.00">s_gen=0</text>
</g>
<!-- n3&#45;&gt;n4 -->
<g id="edge4" class="edge">
<title>n3&#45;&gt;n4</title>
<path fill="none" stroke="#555555" d="M237.86,-152.24C237.86,-160.49 237.86,-169.53 237.86,-177.86"/>
<polygon fill="#555555" stroke="#555555" points="234.36,-177.92 237.86,-187.92 241.36,-177.92 234.36,-177.92"/>
</g>
<!-- n8 -->
<g id="node9" class="node">
<title>n8</title>
<polygon fill="#82e0aa" stroke="black" points="471.36,-300.97 394.36,-300.97 394.36,-264.97 471.36,-264.97 471.36,-300.97"/>
<text text-anchor="start" x="402.36" y="-285.97" font-family="Helvetica,sans-Serif" font-size="10.00">#8 JoinNode</text>
<text text-anchor="start" x="414.36" y="-274.97" font-family="Helvetica,sans-Serif" font-size="10.00">κ=(0,2)</text>
</g>
<!-- n4&#45;&gt;n8 -->
<g id="edge7" class="edge">
<title>n4&#45;&gt;n8</title>
<path fill="none" stroke="#555555" d="M290.37,-228.99C319.77,-239.92 356.14,-253.44 384.78,-264.09"/>
<polygon fill="#555555" stroke="#555555" points="383.59,-267.38 394.18,-267.58 386.02,-260.82 383.59,-267.38"/>
</g>
<!-- n5 -->
<g id="node6" class="node">
<title>n5</title>
<ellipse fill="#aed6f1" stroke="black" cx="367.86" cy="-122.97" rx="55.72" ry="28.98"/>
<text text-anchor="start" x="336.36" y="-131.47" font-family="Helvetica,sans-Serif" font-size="10.00">#5 GenNode</text>
<text text-anchor="start" x="339.36" y="-120.47" font-family="Helvetica,sans-Serif" font-size="10.00">hop=1 &#160;t=0</text>
<text text-anchor="start" x="346.36" y="-109.47" font-family="Helvetica,sans-Serif" font-size="10.00">s_gen=0</text>
</g>
<!-- n7 -->
<g id="node8" class="node">
<title>n7</title>
<polygon fill="#f5b041" stroke="black" points="485.36,-228.97 380.36,-228.97 380.36,-187.97 485.36,-187.97 485.36,-228.97"/>
<text text-anchor="start" x="388.36" y="-216.97" font-family="Helvetica,sans-Serif" font-size="10.00">#7 AbsaBsmNode</text>
<text text-anchor="start" x="416.36" y="-205.97" font-family="Helvetica,sans-Serif" font-size="10.00">hop=1</text>
<text text-anchor="start" x="414.36" y="-194.97" font-family="Helvetica,sans-Serif" font-size="10.00">κ=(1,2)</text>
</g>
<!-- n5&#45;&gt;n7 -->
<g id="edge5" class="edge">
<title>n5&#45;&gt;n7</title>
<path fill="none" stroke="#555555" d="M388.43,-150.39C395.73,-159.78 403.98,-170.36 411.36,-179.85"/>
<polygon fill="#555555" stroke="#555555" points="408.68,-182.1 417.58,-187.84 414.2,-177.8 408.68,-182.1"/>
</g>
<!-- n6 -->
<g id="node7" class="node">
<title>n6</title>
<ellipse fill="#aed6f1" stroke="black" cx="497.86" cy="-122.97" rx="55.72" ry="28.98"/>
<text text-anchor="start" x="466.36" y="-131.47" font-family="Helvetica,sans-Serif" font-size="10.00">#6 GenNode</text>
<text text-anchor="start" x="469.36" y="-120.47" font-family="Helvetica,sans-Serif" font-size="10.00">hop=1 &#160;t=0</text>
<text text-anchor="start" x="476.36" y="-109.47" font-family="Helvetica,sans-Serif" font-size="10.00">s_gen=0</text>
</g>
<!-- n6&#45;&gt;n7 -->
<g id="edge6" class="edge">
<title>n6&#45;&gt;n7</title>
<path fill="none" stroke="#555555" d="M477.3,-150.39C469.99,-159.78 461.75,-170.36 454.36,-179.85"/>
<polygon fill="#555555" stroke="#555555" points="451.52,-177.8 448.14,-187.84 457.05,-182.1 451.52,-177.8"/>
</g>
<!-- n7&#45;&gt;n8 -->
<g id="edge8" class="edge">
<title>n7&#45;&gt;n8</title>
<path fill="none" stroke="#555555" d="M432.86,-229.28C432.86,-237.06 432.86,-246.12 432.86,-254.52"/>
<polygon fill="#555555" stroke="#555555" points="429.36,-254.65 432.86,-264.65 436.36,-254.65 429.36,-254.65"/>
</g>
<!-- n19 -->
<g id="node20" class="node">
<title>n19</title>
<polygon fill="#c39bd3" stroke="black" points="604.36,-377.97 511.36,-377.97 511.36,-336.97 604.36,-336.97 604.36,-377.97"/>
<text text-anchor="start" x="519.36" y="-365.97" font-family="Helvetica,sans-Serif" font-size="10.00">#19 PurifyNode</text>
<text text-anchor="start" x="531.86" y="-354.97" font-family="Helvetica,sans-Serif" font-size="10.00">circuit=XZ</text>
<text text-anchor="start" x="539.36" y="-343.97" font-family="Helvetica,sans-Serif" font-size="10.00">κ=(0,2)</text>
</g>
<!-- n8&#45;&gt;n19 -->
<g id="edge18" class="edge">
<title>n8&#45;&gt;n19</title>
<path fill="none" stroke="#555555" d="M462.48,-301.15C478.22,-310.28 497.85,-321.66 515.2,-331.72"/>
<polygon fill="#555555" stroke="#555555" points="513.63,-334.86 524.03,-336.85 517.14,-328.8 513.63,-334.86"/>
</g>
<!-- n9 -->
<g id="node10" class="node">
<title>n9</title>
<ellipse fill="#aed6f1" stroke="black" cx="684.86" cy="-28.99" rx="55.72" ry="28.98"/>
<text text-anchor="start" x="653.36" y="-37.49" font-family="Helvetica,sans-Serif" font-size="10.00">#9 GenNode</text>
<text text-anchor="start" x="656.36" y="-26.49" font-family="Helvetica,sans-Serif" font-size="10.00">hop=0 &#160;t=0</text>
<text text-anchor="start" x="663.36" y="-15.49" font-family="Helvetica,sans-Serif" font-size="10.00">s_gen=0</text>
</g>
<!-- n11 -->
<g id="node12" class="node">
<title>n11</title>
<polygon fill="#c39bd3" stroke="black" points="664.36,-143.47 571.36,-143.47 571.36,-102.47 664.36,-102.47 664.36,-143.47"/>
<text text-anchor="start" x="579.36" y="-131.47" font-family="Helvetica,sans-Serif" font-size="10.00">#11 PurifyNode</text>
<text text-anchor="start" x="592.36" y="-120.47" font-family="Helvetica,sans-Serif" font-size="10.00">circuit=YY</text>
<text text-anchor="start" x="597.36" y="-109.47" font-family="Helvetica,sans-Serif" font-size="10.00">κ=RGSS</text>
</g>
<!-- n9&#45;&gt;n11 -->
<g id="edge9" class="edge">
<title>n9&#45;&gt;n11</title>
<path fill="none" stroke="#555555" d="M665.48,-56.6C656.9,-68.38 646.8,-82.24 638.12,-94.16"/>
<polygon fill="#555555" stroke="#555555" points="635.15,-92.3 632.09,-102.44 640.81,-96.42 635.15,-92.3"/>
</g>
<!-- n10 -->
<g id="node11" class="node">
<title>n10</title>
<ellipse fill="#aed6f1" stroke="black" cx="550.86" cy="-28.99" rx="60.21" ry="28.98"/>
<text text-anchor="start" x="516.36" y="-37.49" font-family="Helvetica,sans-Serif" font-size="10.00">#10 GenNode</text>
<text text-anchor="start" x="522.36" y="-26.49" font-family="Helvetica,sans-Serif" font-size="10.00">hop=0 &#160;t=0</text>
<text text-anchor="start" x="529.36" y="-15.49" font-family="Helvetica,sans-Serif" font-size="10.00">s_gen=0</text>
</g>
<!-- n10&#45;&gt;n11 -->
<g id="edge10" class="edge">
<title>n10&#45;&gt;n11</title>
<path fill="none" stroke="#555555" d="M570.24,-56.6C578.82,-68.38 588.92,-82.24 597.6,-94.16"/>
<polygon fill="#555555" stroke="#555555" points="594.92,-96.42 603.63,-102.44 600.58,-92.3 594.92,-96.42"/>
</g>
<!-- n13 -->
<g id="node14" class="node">
<title>n13</title>
<polygon fill="#f5b041" stroke="black" points="735.36,-228.97 624.36,-228.97 624.36,-187.97 735.36,-187.97 735.36,-228.97"/>
<text text-anchor="start" x="632.36" y="-216.97" font-family="Helvetica,sans-Serif" font-size="10.00">#13 AbsaBsmNode</text>
<text text-anchor="start" x="663.36" y="-205.97" font-family="Helvetica,sans-Serif" font-size="10.00">hop=0</text>
<text text-anchor="start" x="661.36" y="-194.97" font-family="Helvetica,sans-Serif" font-size="10.00">κ=(0,1)</text>
</g>
<!-- n11&#45;&gt;n13 -->
<g id="edge11" class="edge">
<title>n11&#45;&gt;n13</title>
<path fill="none" stroke="#555555" d="M632.55,-143.76C640.51,-154.47 650.46,-167.88 659.19,-179.62"/>
<polygon fill="#555555" stroke="#555555" points="656.5,-181.88 665.27,-187.82 662.12,-177.71 656.5,-181.88"/>
</g>
<!-- n12 -->
<g id="node13" class="node">
<title>n12</title>
<ellipse fill="#aed6f1" stroke="black" cx="742.86" cy="-122.97" rx="60.21" ry="28.98"/>
<text text-anchor="start" x="708.36" y="-131.47" font-family="Helvetica,sans-Serif" font-size="10.00">#12 GenNode</text>
<text text-anchor="start" x="714.36" y="-120.47" font-family="Helvetica,sans-Serif" font-size="10.00">hop=0 &#160;t=0</text>
<text text-anchor="start" x="721.36" y="-109.47" font-family="Helvetica,sans-Serif" font-size="10.00">s_gen=0</text>
</g>
<!-- n12&#45;&gt;n13 -->
<g id="edge12" class="edge">
<title>n12&#45;&gt;n13</title>
<path fill="none" stroke="#555555" d="M722.93,-150.39C715.85,-159.78 707.86,-170.36 700.7,-179.85"/>
<polygon fill="#555555" stroke="#555555" points="697.9,-177.75 694.67,-187.84 703.49,-181.96 697.9,-177.75"/>
</g>
<!-- n18 -->
<g id="node19" class="node">
<title>n18</title>
<polygon fill="#82e0aa" stroke="black" points="721.36,-300.97 638.36,-300.97 638.36,-264.97 721.36,-264.97 721.36,-300.97"/>
<text text-anchor="start" x="646.36" y="-285.97" font-family="Helvetica,sans-Serif" font-size="10.00">#18 JoinNode</text>
<text text-anchor="start" x="661.36" y="-274.97" font-family="Helvetica,sans-Serif" font-size="10.00">κ=(0,2)</text>
</g>
<!-- n13&#45;&gt;n18 -->
<g id="edge16" class="edge">
<title>n13&#45;&gt;n18</title>
<path fill="none" stroke="#555555" d="M679.86,-229.28C679.86,-237.06 679.86,-246.12 679.86,-254.52"/>
<polygon fill="#555555" stroke="#555555" points="676.36,-254.65 679.86,-264.65 683.36,-254.65 676.36,-254.65"/>
</g>
<!-- n14 -->
<g id="node15" class="node">
<title>n14</title>
<ellipse fill="#aed6f1" stroke="black" cx="880.86" cy="-122.97" rx="60.21" ry="28.98"/>
<text text-anchor="start" x="846.36" y="-131.47" font-family="Helvetica,sans-Serif" font-size="10.00">#14 GenNode</text>
<text text-anchor="start" x="852.36" y="-120.47" font-family="Helvetica,sans-Serif" font-size="10.00">hop=1 &#160;t=0</text>
<text text-anchor="start" x="859.36" y="-109.47" font-family="Helvetica,sans-Serif" font-size="10.00">s_gen=0</text>
</g>
<!-- n17 -->
<g id="node18" class="node">
<title>n17</title>
<polygon fill="#f5b041" stroke="black" points="936.36,-228.97 825.36,-228.97 825.36,-187.97 936.36,-187.97 936.36,-228.97"/>
<text text-anchor="start" x="833.36" y="-216.97" font-family="Helvetica,sans-Serif" font-size="10.00">#17 AbsaBsmNode</text>
<text text-anchor="start" x="864.36" y="-205.97" font-family="Helvetica,sans-Serif" font-size="10.00">hop=1</text>
<text text-anchor="start" x="862.36" y="-194.97" font-family="Helvetica,sans-Serif" font-size="10.00">κ=(1,2)</text>
</g>
<!-- n14&#45;&gt;n17 -->
<g id="edge14" class="edge">
<title>n14&#45;&gt;n17</title>
<path fill="none" stroke="#555555" d="M880.86,-152.24C880.86,-160.49 880.86,-169.53 880.86,-177.86"/>
<polygon fill="#555555" stroke="#555555" points="877.36,-177.92 880.86,-187.92 884.36,-177.92 877.36,-177.92"/>
</g>
<!-- n15 -->
<g id="node16" class="node">
<title>n15</title>
<ellipse fill="#aed6f1" stroke="black" cx="1000.86" cy="-28.99" rx="60.21" ry="28.98"/>
<text text-anchor="start" x="966.36" y="-37.49" font-family="Helvetica,sans-Serif" font-size="10.00">#15 GenNode</text>
<text text-anchor="start" x="972.36" y="-26.49" font-family="Helvetica,sans-Serif" font-size="10.00">hop=1 &#160;t=0</text>
<text text-anchor="start" x="979.36" y="-15.49" font-family="Helvetica,sans-Serif" font-size="10.00">s_gen=0</text>
</g>
<!-- n16 -->
<g id="node17" class="node">
<title>n16</title>
<polygon fill="#d5d8dc" stroke="black" stroke-dasharray="5,2" points="1042.36,-140.97 959.36,-140.97 959.36,-104.97 1042.36,-104.97 1042.36,-140.97"/>
<text text-anchor="start" x="967.36" y="-125.97" font-family="Helvetica,sans-Serif" font-size="10.00">#16 IdleNode</text>
<text text-anchor="start" x="982.36" y="-114.97" font-family="Helvetica,sans-Serif" font-size="10.00">until=1</text>
</g>
<!-- n15&#45;&gt;n16 -->
<g id="edge13" class="edge">
<title>n15&#45;&gt;n16</title>
<path fill="none" stroke="#555555" d="M1000.86,-58.09C1000.86,-69.62 1000.86,-82.93 1000.86,-94.4"/>
<polygon fill="#555555" stroke="#555555" points="997.36,-94.73 1000.86,-104.73 1004.36,-94.73 997.36,-94.73"/>
</g>
<!-- n16&#45;&gt;n17 -->
<g id="edge15" class="edge">
<title>n16&#45;&gt;n17</title>
<path fill="none" stroke="#555555" d="M976.29,-141.07C959.4,-152.82 936.68,-168.63 917.65,-181.87"/>
<polygon fill="#555555" stroke="#555555" points="915.4,-179.17 909.19,-187.75 919.4,-184.92 915.4,-179.17"/>
</g>
<!-- n17&#45;&gt;n18 -->
<g id="edge17" class="edge">
<title>n17&#45;&gt;n18</title>
<path fill="none" stroke="#555555" d="M826.73,-228.99C797.06,-239.69 760.49,-252.88 731.26,-263.43"/>
<polygon fill="#555555" stroke="#555555" points="729.87,-260.21 721.65,-266.89 732.25,-266.79 729.87,-260.21"/>
</g>
<!-- n18&#45;&gt;n19 -->
<g id="edge19" class="edge">
<title>n18&#45;&gt;n19</title>
<path fill="none" stroke="#555555" d="M650.95,-301.15C635.59,-310.28 616.43,-321.66 599.5,-331.72"/>
<polygon fill="#555555" stroke="#555555" points="597.68,-328.73 590.88,-336.85 601.26,-334.75 597.68,-328.73"/>
</g>
<!-- n20 -->
<g id="node21" class="node">
<title>n20</title>
<polygon fill="#f7dc6f" stroke="black" points="557.86,-473.97 459.86,-443.97 557.86,-413.97 655.86,-443.97 557.86,-473.97"/>
<text text-anchor="start" x="516.86" y="-446.97" font-family="Helvetica,sans-Serif" font-size="10.00">#20 HeraldNode</text>
<text text-anchor="start" x="520.36" y="-435.97" font-family="Helvetica,sans-Serif" font-size="10.00">prop_t=1×(L/c)</text>
</g>
<!-- n19&#45;&gt;n20 -->
<g id="edge20" class="edge">
<title>n19&#45;&gt;n20</title>
<path fill="none" stroke="#555555" d="M557.86,-378.06C557.86,-385.7 557.86,-394.74 557.86,-403.62"/>
<polygon fill="#555555" stroke="#555555" points="554.36,-403.86 557.86,-413.86 561.36,-403.86 554.36,-403.86"/>
</g>
<!-- n21 -->
<g id="node22" class="node">
<title>n21</title>
<ellipse fill="#f1948a" stroke="black" stroke-width="3" cx="557.86" cy="-601.65" rx="87.85" ry="87.85"/>
<ellipse fill="none" stroke="black" stroke-width="3" cx="557.86" cy="-601.65" rx="91.86" ry="91.86"/>
<text text-anchor="start" x="503.86" y="-604.65" font-family="Helvetica,sans-Serif" font-size="10.00">#21 PauliCorrectNode</text>
<text text-anchor="start" x="522.86" y="-593.65" font-family="Helvetica,sans-Serif" font-size="10.00">κ=(0,2) &#160;[root]</text>
</g>
<!-- n20&#45;&gt;n21 -->
<g id="edge21" class="edge">
<title>n20&#45;&gt;n21</title>
<path fill="none" stroke="#555555" d="M557.86,-474.25C557.86,-481.88 557.86,-490.55 557.86,-499.69"/>
<polygon fill="#555555" stroke="#555555" points="554.36,-499.76 557.86,-509.76 561.36,-499.76 554.36,-499.76"/>
</g>
</g>
</svg>
